<svg width="30" height="20" viewBox="0 0 30 20" fill="none" xmlns="http://www.w3.org/2000/svg">
<g clip-path="url(#clip0_203_974)">
<path d="M30 0H0V20H30V0Z" fill="#00923F"/>
<path fill-rule="evenodd" clip-rule="evenodd" d="M15.0008 2.42969L2.55078 10.0011L15.0008 17.5725L27.4508 10.0011L15.0008 2.42969Z" fill="#F8C300"/>
<path d="M14.9892 14.9911C17.8827 14.9911 20.2284 12.7572 20.2284 10.0014C20.2284 7.24569 17.8827 5.01172 14.9892 5.01172C12.0957 5.01172 9.75 7.24569 9.75 10.0014C9.75 12.7572 12.0957 14.9911 14.9892 14.9911Z" fill="#28166F"/>
<path fill-rule="evenodd" clip-rule="evenodd" d="M15.5182 11.0777L15.5815 11.23L15.7528 11.2403L15.6208 11.3449L15.6631 11.5034L15.5182 11.4157L15.373 11.5034L15.4156 11.3449L15.2833 11.2403L15.4546 11.23L15.5182 11.0777ZM19.435 11.6103L19.489 11.74L19.6351 11.7489L19.5223 11.838L19.5586 11.9729L19.435 11.8983L19.3111 11.9729L19.3474 11.838L19.2349 11.7489L19.381 11.74L19.435 11.6103ZM18.8743 12.0237L18.9379 12.1757L19.1092 12.1863L18.9769 12.2906L19.0195 12.4491L18.8743 12.3617L18.7291 12.4491L18.7717 12.2906L18.6394 12.1863L18.811 12.1757L18.8743 12.0237ZM18.6664 11.4886L18.7417 11.6689L18.9448 11.6814L18.7882 11.8051L18.8386 11.9929L18.6664 11.8891L18.4945 11.9929L18.5449 11.8051L18.3883 11.6814L18.5914 11.6689L18.6664 11.4886ZM18.6262 12.4206L18.6895 12.5726L18.8611 12.5829L18.7288 12.6874L18.7714 12.846L18.6262 12.7583L18.481 12.846L18.5236 12.6874L18.3913 12.5829L18.5626 12.5726L18.6262 12.4206ZM18.1357 12.6663L18.1897 12.7957L18.3358 12.8049L18.2233 12.8937L18.2596 13.0289L18.1357 12.9543L18.0121 13.0289L18.0484 12.8937L17.9356 12.8049L18.0817 12.7957L18.1357 12.6663ZM17.6314 13.1129L17.695 13.2649L17.8663 13.2754L17.734 13.3797L17.7766 13.5383L17.6314 13.4506L17.4865 13.5383L17.5288 13.3797L17.3968 13.2754L17.5681 13.2649L17.6314 13.1129ZM17.6254 13.6717L17.6794 13.8014L17.8255 13.8103L17.713 13.8994L17.7493 14.0346L17.6254 13.96L17.5018 14.0346L17.5381 13.8994L17.4253 13.8103L17.5714 13.8014L17.6254 13.6717ZM17.6173 12.6614L17.6713 12.7909L17.8174 12.7997L17.7046 12.8889L17.7409 13.024L17.6173 12.9494L17.4934 13.024L17.5297 12.8889L17.4169 12.7997L17.5633 12.7909L17.6173 12.6614ZM16.9993 12.7771L17.0536 12.9069L17.1997 12.9157L17.0869 13.0049L17.1232 13.14L16.9993 13.0654L16.8757 13.14L16.912 13.0049L16.7992 12.9157L16.9453 12.9069L16.9993 12.7771ZM16.603 7.98828L16.6783 8.16857L16.8814 8.18085L16.7248 8.30457L16.7752 8.49228L16.603 8.38857L16.4311 8.49228L16.4815 8.30457L16.3249 8.18085L16.528 8.16857L16.603 7.98828ZM16.5202 13.234L16.5835 13.3863L16.7551 13.3966L16.6228 13.5011L16.6654 13.6594L16.5202 13.572L16.375 13.6594L16.4176 13.5011L16.2853 13.3966L16.4566 13.3863L16.5202 13.234ZM16.2286 9.50485L16.2829 9.63428L16.429 9.64342L16.3162 9.73228L16.3525 9.86742L16.2286 9.79285L16.105 9.86742L16.1413 9.73228L16.0285 9.64342L16.1746 9.63428L16.2286 9.50485ZM16.0897 12.6514L16.1437 12.7811L16.2898 12.79L16.1773 12.8789L16.2136 13.014L16.0897 12.9394L15.9661 13.014L16.0024 12.8789L15.8896 12.79L16.0357 12.7811L16.0897 12.6514ZM15.0379 10.65L15.1012 10.802L15.2728 10.8126L15.1405 10.9169L15.1831 11.0754L15.0379 10.988L14.8927 11.0754L14.9353 10.9169L14.803 10.8126L14.9743 10.802L15.0379 10.65ZM15.0073 12.0654L15.0823 12.2457L15.2857 12.258L15.1288 12.3817L15.1792 12.5697L15.0073 12.466L14.8354 12.5697L14.8858 12.3817L14.7289 12.258L14.9323 12.2457L15.0073 12.0654ZM15.0244 13.8703L15.0532 13.9394L15.1312 13.9443L15.0712 13.9917L15.0904 14.064L15.0244 14.024L14.9584 14.064L14.9776 13.9917L14.9176 13.9443L14.9956 13.9394L15.0244 13.8703ZM14.6935 11.4849L14.734 11.582L14.8432 11.5886L14.7589 11.6551L14.7862 11.7563L14.6935 11.7003L14.6011 11.7563L14.6281 11.6551L14.5438 11.5886L14.6533 11.582L14.6935 11.4849ZM14.3107 11.1697L14.3647 11.2994L14.5108 11.3083L14.398 11.3971L14.4343 11.5323L14.3107 11.4577L14.1868 11.5323L14.2231 11.3971L14.1103 11.3083L14.2567 11.2994L14.3107 11.1697ZM12.9499 9.97828L13.0132 10.1306L13.1845 10.1409L13.0525 10.2454L13.0948 10.404L12.9499 10.3163L12.8047 10.404L12.8473 10.2454L12.715 10.1409L12.8863 10.1306L12.9499 9.97828ZM12.7966 12.4986L12.8716 12.6789L13.075 12.6914L12.9181 12.8151L12.9685 13.0029L12.7966 12.8991L12.6244 13.0029L12.6751 12.8151L12.5182 12.6914L12.7213 12.6789L12.7966 12.4986ZM12.2212 11.5037L12.2848 11.6557L12.4561 11.6663L12.3238 11.7706L12.3664 11.9291L12.2212 11.8414L12.0763 11.9291L12.1186 11.7706L11.9866 11.6663L12.1579 11.6557L12.2212 11.5037ZM12.0316 12.0643L12.0856 12.194L12.2317 12.2029L12.1189 12.2917L12.1552 12.4269L12.0316 12.3523L11.9077 12.4269L11.944 12.2917L11.8312 12.2029L11.9773 12.194L12.0316 12.0643ZM11.6407 10.7891L11.6812 10.886L11.7904 10.8929L11.7061 10.9594L11.7334 11.0603L11.6407 11.0046L11.5483 11.0603L11.5753 10.9594L11.491 10.8929L11.6005 10.886L11.6407 10.7891ZM11.1598 10.9903L11.2348 11.1706L11.4382 11.1829L11.2813 11.3066L11.3317 11.4946L11.1598 11.3909L10.9879 11.4946L11.0383 11.3066L10.8814 11.1829L11.0848 11.1706L11.1598 10.9903ZM10.7281 8.91428L10.8034 9.09457L11.0065 9.10685L10.8499 9.23057L10.9003 9.41857L10.7281 9.31485L10.5562 9.41857L10.6066 9.23057L10.45 9.10685L10.6531 9.09457L10.7281 8.91428ZM10.6099 11.4646L10.6735 11.6169L10.8448 11.6271L10.7125 11.7317L10.7551 11.89L10.6099 11.8026L10.4647 11.89L10.5073 11.7317L10.375 11.6271L10.5466 11.6169L10.6099 11.4646Z" fill="white"/>
<path fill-rule="evenodd" clip-rule="evenodd" d="M11.8599 8.45858C14.9763 8.45858 17.8332 9.5503 20.0313 11.352C20.1039 11.1092 20.1576 10.8589 20.1909 10.6029C17.9118 8.8423 15.0114 7.78516 11.8599 7.78516C11.3136 7.78516 10.7748 7.81773 10.2453 7.87944C10.1322 8.10944 10.0368 8.34858 9.96094 8.59573C10.5804 8.50544 11.2146 8.45858 11.8599 8.45858Z" fill="white"/>
<path fill-rule="evenodd" clip-rule="evenodd" d="M10.5133 8.19816C10.5175 8.24701 10.5325 8.28387 10.5577 8.30901C10.5829 8.33416 10.6159 8.34501 10.657 8.34187C10.6981 8.33844 10.7293 8.32244 10.7497 8.2933C10.7704 8.26444 10.7782 8.22558 10.774 8.17673C10.7695 8.12787 10.7545 8.09101 10.7293 8.06587C10.7038 8.04073 10.6705 8.02987 10.6291 8.0333C10.588 8.03644 10.5574 8.05273 10.537 8.08158C10.5169 8.11016 10.5088 8.14901 10.5133 8.19816ZM10.4155 8.20616C10.4089 8.13444 10.4245 8.07587 10.4617 8.03044C10.4989 7.98501 10.5523 7.95958 10.6219 7.95387C10.6915 7.94816 10.7488 7.96473 10.7938 8.0033C10.8388 8.04216 10.8646 8.0973 10.8709 8.16873C10.8775 8.24044 10.8619 8.29901 10.8244 8.34444C10.7872 8.38987 10.7335 8.41558 10.6642 8.4213C10.5943 8.42701 10.5373 8.41044 10.4923 8.37158C10.4476 8.33273 10.4218 8.27758 10.4155 8.20616ZM11.1763 8.1233L11.2894 8.11958C11.314 8.11873 11.3317 8.11358 11.3431 8.10358C11.3542 8.09387 11.3593 8.07873 11.3587 8.05844C11.3581 8.03901 11.3518 8.02444 11.3404 8.01501C11.3287 8.0053 11.3119 8.00073 11.2897 8.00158L11.1721 8.0053L11.1763 8.1233ZM11.089 8.37673L11.0734 7.93158L11.3002 7.92444C11.3509 7.92273 11.389 7.93187 11.4142 7.95187C11.4397 7.97187 11.4529 8.0033 11.4544 8.04587C11.4553 8.07301 11.4502 8.09587 11.4388 8.11444C11.4277 8.13301 11.4109 8.14587 11.3887 8.1533C11.4091 8.15958 11.4241 8.16958 11.4331 8.1833C11.4421 8.1973 11.4478 8.21901 11.4502 8.24873L11.4541 8.3013V8.30301C11.4556 8.32958 11.4622 8.34558 11.4739 8.35073L11.4742 8.36444L11.3689 8.36787C11.3653 8.36158 11.3626 8.35416 11.3605 8.34501C11.3584 8.33587 11.3566 8.32501 11.356 8.31216L11.353 8.2653C11.3509 8.23787 11.3449 8.2193 11.3347 8.21016C11.3245 8.20073 11.3065 8.19644 11.281 8.1973L11.179 8.20044L11.1853 8.37358L11.089 8.37673ZM11.779 8.27673L11.8561 8.27816C11.9008 8.27901 11.9335 8.26844 11.9539 8.24644C11.9743 8.22473 11.9851 8.18844 11.986 8.13873C11.9869 8.08873 11.9785 8.05216 11.9602 8.02844C11.9419 8.00473 11.9131 7.99244 11.8735 7.99187L11.7847 7.99016L11.779 8.27673ZM11.683 8.3553L11.692 7.91016L11.875 7.9133C11.947 7.91473 12.0001 7.93416 12.0346 7.97158C12.0691 8.00901 12.0856 8.0653 12.0841 8.14044C12.0832 8.18101 12.076 8.21673 12.0625 8.24758C12.0487 8.27844 12.0292 8.30301 12.0043 8.32158C11.9854 8.3353 11.9641 8.34501 11.9401 8.35073C11.9164 8.35644 11.8831 8.35901 11.8402 8.35816L11.683 8.3553ZM12.2764 8.3653L12.3016 7.92073L12.6409 7.93816L12.6364 8.0153L12.3919 8.00273L12.3868 8.09758L12.61 8.10901L12.6058 8.18501L12.3823 8.17358L12.376 8.28787L12.6316 8.30101L12.6271 8.3833L12.2764 8.3653ZM12.8269 8.39644L12.8764 7.95358L13.018 7.96787L13.0726 8.31444L13.2016 7.98673L13.3435 8.00101L13.294 8.44387L13.2043 8.43473L13.2442 8.07758L13.1098 8.4253L13.012 8.4153L12.9565 8.04844L12.9163 8.40558L12.8269 8.39644ZM14.0659 8.54844L14.1637 8.11301L14.4958 8.18073L14.4787 8.25644L14.2396 8.20758L14.2186 8.30044L14.4376 8.34501L14.4208 8.41958L14.2018 8.37473L14.1766 8.48673L14.4271 8.53787L14.4091 8.61844L14.0659 8.54844ZM15.3034 8.57587L15.3934 8.59901C15.4177 8.60501 15.4366 8.60473 15.4504 8.59787C15.4642 8.59073 15.4744 8.57644 15.4804 8.55444C15.4864 8.53416 15.4852 8.5173 15.4774 8.50387C15.4696 8.49073 15.4549 8.4813 15.4333 8.47587L15.3388 8.45158L15.3034 8.57587ZM15.2809 8.65358L15.2377 8.80644L15.1447 8.78273L15.2662 8.35273L15.4672 8.40416C15.5146 8.41644 15.547 8.43758 15.565 8.46701C15.5827 8.49673 15.5851 8.53444 15.5722 8.57987C15.5599 8.62416 15.5383 8.6553 15.5074 8.67301C15.4768 8.69101 15.439 8.69416 15.3949 8.68301L15.2809 8.65358ZM15.8431 8.72358L15.9511 8.7553C15.9745 8.76216 15.9934 8.76273 16.0072 8.75673C16.0213 8.75101 16.0312 8.73816 16.0375 8.71873C16.0435 8.70044 16.0426 8.68473 16.0351 8.67216C16.0276 8.6593 16.0129 8.64987 15.9919 8.64358L15.8794 8.61073L15.8431 8.72358ZM15.6739 8.93616L15.811 8.51044L16.0279 8.57387C16.0765 8.58816 16.1095 8.60873 16.1266 8.6353C16.1437 8.66216 16.1455 8.69587 16.1323 8.73673C16.1239 8.76273 16.1113 8.78273 16.0942 8.79673C16.0771 8.81073 16.057 8.81787 16.0336 8.81787C16.0507 8.83016 16.0615 8.84416 16.0654 8.86016C16.069 8.87616 16.0669 8.89844 16.0591 8.9273L16.0447 8.97816C16.0447 8.97844 16.0444 8.97901 16.0441 8.97987C16.0366 9.0053 16.0372 9.02244 16.0465 9.03101L16.0423 9.04416L15.9415 9.01444C15.9403 9.00758 15.94 8.99958 15.9412 8.99016C15.9424 8.98101 15.9445 8.97016 15.9481 8.95787L15.9613 8.91273C15.9688 8.88616 15.9694 8.86673 15.9631 8.85501C15.9565 8.84301 15.9412 8.8333 15.9166 8.82616L15.8191 8.79758L15.7657 8.96301L15.6739 8.93616ZM16.3858 8.93473C16.3681 8.98073 16.3654 9.02016 16.3771 9.0533C16.3885 9.08616 16.4137 9.1093 16.4524 9.12273C16.4914 9.13616 16.5265 9.13416 16.558 9.11616C16.5895 9.09816 16.6141 9.06616 16.6318 9.02016C16.6492 8.97416 16.6522 8.93473 16.6405 8.90187C16.6285 8.86873 16.603 8.8453 16.564 8.83187C16.5256 8.81844 16.4905 8.82073 16.4593 8.83844C16.4281 8.85644 16.4035 8.88844 16.3858 8.93473ZM16.2937 8.90244C16.3198 8.83501 16.3597 8.78816 16.4134 8.76187C16.4674 8.73587 16.5271 8.73416 16.5928 8.75701C16.6582 8.77987 16.7029 8.81787 16.7266 8.87101C16.7503 8.92444 16.7491 8.98473 16.723 9.05216C16.6972 9.11958 16.6573 9.16644 16.603 9.19244C16.549 9.21873 16.489 9.22044 16.4236 9.19758C16.3579 9.17473 16.3135 9.13673 16.2901 9.08358C16.2667 9.03044 16.2679 8.96987 16.2937 8.90244ZM17.1589 9.42558C17.1337 9.43958 17.1088 9.4473 17.0839 9.44873C17.0593 9.45016 17.0332 9.4453 17.0059 9.43416C16.9459 9.40958 16.906 9.37016 16.8865 9.3153C16.867 9.26016 16.8718 9.20044 16.9006 9.13587C16.93 9.07044 16.972 9.02587 17.0266 9.00187C17.0812 8.97758 17.1397 8.97816 17.2015 9.0033C17.2555 9.0253 17.2939 9.0553 17.317 9.09387C17.3401 9.13216 17.3452 9.17416 17.3323 9.21987L17.242 9.1833C17.2462 9.15987 17.2423 9.13901 17.2303 9.12101C17.2186 9.10301 17.1991 9.08873 17.1721 9.07758C17.1361 9.06301 17.1022 9.06416 17.0704 9.08101C17.0386 9.09758 17.0128 9.12816 16.993 9.17244C16.9729 9.21701 16.9681 9.25616 16.9783 9.29016C16.9885 9.32416 17.0122 9.34873 17.0494 9.36387C17.0776 9.37501 17.1046 9.37673 17.1304 9.36873C17.1565 9.36044 17.1778 9.34358 17.1946 9.31816L17.0971 9.27844L17.1283 9.20844L17.3065 9.28073L17.2072 9.50244L17.1481 9.47844L17.1589 9.42558ZM17.6035 9.41387L17.7049 9.4613C17.7271 9.47158 17.7454 9.47473 17.7601 9.47101C17.7748 9.4673 17.7868 9.45644 17.7964 9.43787C17.8051 9.42073 17.8069 9.4053 17.8015 9.39158C17.7961 9.37787 17.7832 9.36644 17.7634 9.35701L17.6578 9.30787L17.6035 9.41387ZM17.4013 9.59844L17.6068 9.19873L17.8105 9.29358C17.8564 9.31501 17.8855 9.34016 17.8978 9.36901C17.9104 9.39787 17.9068 9.43158 17.887 9.46987C17.8744 9.49444 17.8585 9.51216 17.8396 9.52358C17.8204 9.53473 17.7991 9.53873 17.776 9.5353C17.791 9.55016 17.7991 9.5653 17.8006 9.58187C17.8015 9.59816 17.7958 9.61987 17.7832 9.64701L17.7607 9.6953C17.7607 9.69558 17.7604 9.69616 17.7598 9.69673C17.7481 9.72073 17.746 9.73787 17.7538 9.74787L17.7475 9.75987L17.6527 9.71587C17.6527 9.70873 17.6539 9.70073 17.6566 9.69187C17.6593 9.68273 17.6632 9.67244 17.6689 9.66101L17.6893 9.61844C17.701 9.5933 17.7046 9.57416 17.7004 9.5613C17.6959 9.54844 17.6821 9.53673 17.6593 9.52616L17.5678 9.4833L17.4877 9.63873L17.4013 9.59844ZM17.9239 9.85416L18.1513 9.46501L18.448 9.62216L18.4084 9.68987L18.1945 9.57644L18.1462 9.65958L18.3418 9.76301L18.3028 9.82958L18.1072 9.72616L18.0487 9.82616L18.2728 9.94473L18.2308 10.0167L17.9239 9.85416ZM18.4516 9.99216L18.5329 10.0387C18.5227 10.0613 18.5218 10.0822 18.5302 10.1007C18.5386 10.1193 18.5569 10.1367 18.5851 10.1527C18.6091 10.1667 18.6295 10.173 18.6469 10.1716C18.6643 10.1707 18.6778 10.1622 18.688 10.1462C18.7024 10.123 18.6796 10.0839 18.6196 10.0287L18.6175 10.0267C18.616 10.0253 18.6136 10.023 18.6103 10.0202C18.5776 9.99073 18.5566 9.96673 18.547 9.94787C18.538 9.9313 18.5347 9.9133 18.5365 9.89444C18.5383 9.87558 18.5455 9.85644 18.5581 9.83644C18.5815 9.7993 18.6127 9.77873 18.6517 9.77387C18.6907 9.76958 18.7354 9.78158 18.7852 9.81016C18.832 9.83701 18.862 9.86873 18.8749 9.90473C18.8881 9.94101 18.883 9.97873 18.8605 10.0179L18.7813 9.97244C18.7915 9.95301 18.793 9.93473 18.7855 9.91758C18.7783 9.90016 18.7621 9.88416 18.7375 9.87016C18.7159 9.85758 18.6967 9.85216 18.6799 9.8533C18.6631 9.85473 18.6502 9.86273 18.6406 9.87758C18.6277 9.89787 18.6412 9.92587 18.6802 9.96216C18.6907 9.97187 18.6991 9.97958 18.7048 9.98501C18.7297 10.009 18.7468 10.0264 18.7567 10.0373C18.7663 10.0484 18.7741 10.0587 18.7801 10.069C18.7909 10.087 18.796 10.1053 18.7951 10.1242C18.7942 10.1433 18.7876 10.1627 18.775 10.1824C18.7498 10.2222 18.7165 10.2447 18.6745 10.2504C18.6325 10.2562 18.586 10.2444 18.535 10.215C18.4846 10.1862 18.4519 10.1524 18.4375 10.1136C18.4231 10.075 18.4276 10.0344 18.4516 9.99216ZM18.9442 10.2856L19.0228 10.3364C19.0114 10.3584 19.0096 10.379 19.0171 10.3982C19.0243 10.417 19.0417 10.4353 19.069 10.4527C19.0921 10.4676 19.1122 10.475 19.1296 10.4747C19.147 10.4744 19.1611 10.4667 19.1719 10.4513C19.1878 10.4287 19.1671 10.3887 19.1101 10.3304C19.1095 10.3299 19.1086 10.329 19.1083 10.3284C19.1065 10.327 19.1044 10.3247 19.1014 10.3213C19.0705 10.2904 19.0507 10.2656 19.042 10.2462C19.0342 10.2293 19.0318 10.211 19.0345 10.1924C19.0375 10.1736 19.0456 10.1547 19.0594 10.1356C19.0849 10.0996 19.1173 10.0804 19.1563 10.0779C19.1956 10.0753 19.2394 10.0896 19.2877 10.1207C19.333 10.1499 19.3609 10.1827 19.372 10.2196C19.3831 10.2564 19.3762 10.2936 19.3513 10.3316L19.2745 10.2824C19.2859 10.2636 19.2883 10.2453 19.282 10.2276C19.2757 10.2099 19.2604 10.1933 19.2367 10.1779C19.2157 10.1644 19.1968 10.1579 19.18 10.1584C19.1632 10.159 19.1497 10.1664 19.1395 10.1807C19.1257 10.2002 19.1374 10.229 19.1743 10.267C19.1845 10.2773 19.1923 10.2856 19.1977 10.2913C19.2211 10.3162 19.2373 10.3347 19.2466 10.3459C19.2556 10.3573 19.2628 10.3684 19.2682 10.3787C19.2781 10.3973 19.282 10.4159 19.2802 10.4347C19.2784 10.4536 19.2706 10.4727 19.2568 10.4919C19.2298 10.5302 19.195 10.5513 19.1527 10.5547C19.1104 10.5584 19.0648 10.5444 19.0153 10.5124C18.9667 10.481 18.9361 10.4456 18.9238 10.4064C18.9112 10.367 18.9181 10.3267 18.9442 10.2856ZM19.5385 10.5859C19.5073 10.625 19.4923 10.6622 19.4935 10.6967C19.4944 10.7316 19.5115 10.7607 19.5442 10.7844C19.5772 10.8082 19.6117 10.8159 19.6474 10.8076C19.6828 10.7993 19.7161 10.7753 19.7473 10.7362C19.7782 10.6973 19.7932 10.6602 19.792 10.6253C19.7905 10.5904 19.7734 10.561 19.7404 10.5373C19.7077 10.5136 19.6735 10.5062 19.6381 10.5147C19.6027 10.523 19.5694 10.5467 19.5385 10.5859ZM19.4602 10.5296C19.5058 10.4724 19.5583 10.4387 19.6177 10.4284C19.6774 10.4184 19.735 10.4336 19.7908 10.4736C19.8466 10.5139 19.8775 10.5624 19.8838 10.6202C19.8898 10.6776 19.8703 10.735 19.825 10.7922C19.7794 10.8496 19.7266 10.8833 19.6669 10.893C19.6072 10.903 19.5493 10.8882 19.4938 10.8482C19.438 10.8079 19.4071 10.759 19.4011 10.7016C19.3951 10.6444 19.4146 10.587 19.4602 10.5296Z" fill="#00923F"/>
</g>
<defs>
<clipPath id="clip0_203_974">
<rect width="30" height="20" fill="white"/>
</clipPath>
</defs>
</svg>
