<?xml version="1.0" encoding="UTF-8"?>
<svg xmlns="http://www.w3.org/2000/svg" xmlns:xlink="http://www.w3.org/1999/xlink" width="30px" height="20px" viewBox="0 0 30 20" version="1.1">
<g id="surface1">
<rect x="0" y="0" width="30" height="20" style="fill:rgb(100%,0%,0%);fill-opacity:1;stroke:none;"/>
<path style=" stroke:none;fill-rule:nonzero;fill:rgb(0%,40%,0%);fill-opacity:1;" d="M 0 0 L 12 0 L 12 20 L 0 20 Z M 0 0 "/>
<path style="fill-rule:evenodd;fill:rgb(100%,100%,0%);fill-opacity:1;stroke-width:0.573;stroke-linecap:round;stroke-linejoin:round;stroke:rgb(0%,0%,0%);stroke-opacity:1;stroke-miterlimit:4;" d="M 318.203125 261.875 C 288.046875 260.9375 149.53125 174.453125 148.515625 160.703125 L 156.171875 147.96875 C 169.921875 167.890625 311.5625 252.03125 325.46875 249.0625 L 318.203125 261.875 " transform="matrix(0.05,0,0,0.05,0,0)"/>
<path style="fill-rule:evenodd;fill:rgb(100%,100%,0%);fill-opacity:1;stroke-width:0.573;stroke-linecap:round;stroke-linejoin:round;stroke:rgb(0%,0%,0%);stroke-opacity:1;stroke-miterlimit:4;" d="M 154.609375 146.25 C 151.875 153.515625 190.703125 177.578125 237.5 206.015625 C 284.21875 234.453125 324.53125 251.953125 327.578125 249.453125 C 327.734375 249.140625 328.984375 246.953125 328.90625 246.953125 C 328.359375 247.8125 326.953125 248.046875 324.84375 247.421875 C 312.1875 243.828125 279.296875 228.671875 238.4375 203.90625 C 197.65625 179.21875 162.1875 156.40625 156.640625 146.71875 C 156.25 146.015625 156.015625 144.84375 156.09375 143.828125 L 155.9375 143.828125 L 154.765625 145.9375 Z M 318.984375 262.265625 C 318.4375 263.203125 317.5 263.203125 315.703125 263.046875 C 304.375 261.796875 270.078125 245.078125 229.53125 220.78125 C 182.265625 192.578125 143.28125 166.796875 147.5 160.078125 L 148.671875 158.046875 L 148.90625 158.125 C 145.078125 169.53125 225.859375 215.703125 230.625 218.671875 C 277.34375 247.578125 316.71875 264.453125 320.234375 260.078125 Z M 318.984375 262.265625 " transform="matrix(0.05,0,0,0.05,0,0)"/>
<path style="fill-rule:evenodd;fill:rgb(100%,100%,0%);fill-opacity:1;stroke-width:0.573;stroke-linecap:round;stroke-linejoin:round;stroke:rgb(0%,0%,0%);stroke-opacity:1;stroke-miterlimit:4;" d="M 240.15625 169.0625 C 270.390625 168.828125 307.734375 164.921875 329.21875 156.40625 L 324.53125 148.828125 C 311.875 155.859375 274.375 160.46875 239.921875 161.171875 C 199.140625 160.78125 170.390625 157.03125 156.015625 147.34375 L 151.640625 155.390625 C 178.125 166.5625 205.234375 168.90625 240.15625 169.0625 " transform="matrix(0.05,0,0,0.05,0,0)"/>
<path style="fill-rule:evenodd;fill:rgb(100%,100%,0%);fill-opacity:1;stroke-width:0.573;stroke-linecap:round;stroke-linejoin:round;stroke:rgb(0%,0%,0%);stroke-opacity:1;stroke-miterlimit:4;" d="M 330.46875 156.5625 C 329.6875 157.734375 315.703125 162.578125 295.078125 166.09375 C 281.09375 168.28125 262.8125 170.078125 240.078125 170.078125 C 218.4375 170.078125 200.78125 168.59375 187.34375 166.796875 C 165.703125 163.359375 154.53125 158.671875 150.390625 156.953125 C 150.78125 156.171875 151.09375 155.625 151.40625 154.921875 C 163.359375 159.609375 174.53125 162.5 187.734375 164.53125 C 201.015625 166.328125 218.4375 167.890625 240 167.890625 C 262.65625 167.8125 280.703125 165.859375 294.609375 163.828125 C 315.78125 160.390625 327.34375 156.015625 328.984375 153.984375 Z M 326.40625 148.90625 C 324.0625 150.78125 312.65625 154.84375 292.578125 158.046875 C 279.140625 159.921875 262.109375 161.640625 240.3125 161.71875 C 219.609375 161.71875 202.65625 160.3125 189.84375 158.4375 C 169.375 155.78125 158.515625 150.9375 154.609375 149.53125 C 155 148.90625 155.390625 148.203125 155.78125 147.578125 C 158.828125 149.0625 169.375 153.359375 190 156.25 C 202.734375 158.046875 219.6875 159.375 240.3125 159.375 C 261.953125 159.375 278.828125 157.578125 292.1875 155.703125 C 312.421875 152.890625 323.28125 147.734375 324.921875 146.484375 Z M 140.859375 205.46875 C 159.453125 215.46875 200.78125 220.546875 239.84375 220.859375 C 275.46875 220.9375 321.796875 215.390625 339.140625 206.171875 L 338.671875 196.171875 C 333.28125 204.6875 283.59375 212.8125 239.453125 212.421875 C 195.390625 212.109375 154.453125 205.3125 140.78125 196.484375 L 140.859375 205.46875 " transform="matrix(0.05,0,0,0.05,0,0)"/>
<path style="fill-rule:evenodd;fill:rgb(100%,100%,0%);fill-opacity:1;stroke-width:0.573;stroke-linecap:round;stroke-linejoin:round;stroke:rgb(0%,0%,0%);stroke-opacity:1;stroke-miterlimit:4;" d="M 340.15625 204.0625 L 340.15625 206.40625 C 337.5 209.53125 321.171875 214.296875 300.703125 217.578125 C 285.078125 220 264.765625 221.796875 239.453125 221.796875 C 215.390625 221.796875 196.171875 220.078125 181.25 217.734375 C 157.734375 214.375 142.65625 208.359375 139.6875 206.5625 L 139.6875 203.75 C 148.75 209.765625 173.359375 214.21875 181.640625 215.546875 C 196.40625 217.8125 215.46875 219.53125 239.453125 219.53125 C 264.609375 219.53125 284.84375 217.734375 300.390625 215.390625 C 315.078125 213.28125 336.015625 207.734375 340.15625 204.0625 Z M 340.15625 195.546875 L 340.15625 197.96875 C 337.5 201.09375 321.171875 205.78125 300.703125 209.0625 C 285.078125 211.484375 264.765625 213.28125 239.453125 213.28125 C 215.390625 213.28125 196.171875 211.5625 181.25 209.296875 C 157.734375 205.859375 142.734375 199.84375 139.6875 198.046875 L 139.6875 195.3125 C 148.75 201.328125 173.359375 205.703125 181.640625 207.109375 C 196.40625 209.375 215.46875 211.015625 239.453125 211.015625 C 264.609375 211.015625 284.84375 209.21875 300.390625 206.875 C 315.078125 204.765625 336.015625 199.21875 340.15625 195.546875 Z M 239.765625 260.15625 C 197.03125 259.921875 160.390625 248.515625 152.65625 246.640625 L 158.28125 255.46875 C 171.953125 261.171875 207.734375 269.765625 240.234375 268.828125 C 272.734375 267.890625 301.09375 265.3125 321.09375 255.625 L 326.953125 246.40625 C 313.28125 252.890625 266.875 260.078125 239.765625 260.15625 " transform="matrix(0.05,0,0,0.05,0,0)"/>
<path style="fill-rule:evenodd;fill:rgb(100%,100%,0%);fill-opacity:1;stroke-width:0.55;stroke-linecap:round;stroke-linejoin:round;stroke:rgb(0%,0%,0%);stroke-opacity:1;stroke-miterlimit:4;" d="M 323.28125 253.515625 C 322.421875 254.84375 321.5625 256.09375 320.703125 257.34375 C 311.25 260.703125 296.40625 264.21875 290.078125 265.234375 C 277.265625 267.890625 257.421875 269.84375 239.84375 269.84375 C 201.953125 269.296875 170.9375 261.875 156.328125 255.546875 L 155.15625 253.515625 L 155.390625 253.203125 L 157.34375 253.984375 C 183.28125 263.28125 212.421875 266.953125 240.078125 267.65625 C 257.578125 267.65625 275.15625 265.625 289.375 263.046875 C 311.09375 258.75 319.921875 255.390625 322.578125 253.90625 Z M 328.28125 245.234375 L 328.359375 245.3125 C 327.734375 246.40625 327.109375 247.5 326.40625 248.59375 C 321.40625 250.390625 307.734375 254.375 287.734375 257.1875 C 274.609375 258.984375 266.40625 260.703125 240.3125 261.25 C 191.25 260 159.53125 250.390625 152.03125 248.046875 L 150.859375 245.859375 C 179.296875 253.28125 208.28125 258.515625 240.3125 258.984375 C 264.21875 258.515625 274.375 256.71875 287.421875 255 C 310.703125 251.328125 322.421875 247.5 325.9375 246.40625 C 325.9375 246.328125 325.859375 246.25 325.78125 246.25 Z M 328.28125 245.234375 " transform="matrix(0.05,0,0,0.05,0,0)"/>
<path style="fill-rule:evenodd;fill:rgb(100%,100%,0%);fill-opacity:1;stroke-width:0.573;stroke-linecap:round;stroke-linejoin:round;stroke:rgb(0%,0%,0%);stroke-opacity:1;stroke-miterlimit:4;" d="M 328.828125 197.578125 C 328.984375 225.703125 314.53125 250.9375 302.96875 262.109375 C 286.5625 277.890625 264.84375 288.046875 239.375 288.4375 C 211.015625 288.984375 184.296875 270.46875 177.109375 262.34375 C 163.046875 246.484375 151.640625 226.328125 151.328125 199.140625 C 153.046875 168.4375 165.078125 147.03125 182.578125 132.34375 C 200 117.734375 223.28125 110.546875 242.65625 111.09375 C 265.078125 111.640625 291.171875 122.65625 309.21875 144.375 C 321.015625 158.671875 326.171875 174.140625 328.828125 197.578125 Z M 239.609375 101.25 C 294.140625 101.25 338.90625 145.546875 338.90625 199.921875 C 338.90625 254.296875 294.140625 298.671875 239.609375 298.671875 C 185.15625 298.671875 140.703125 254.296875 140.703125 199.921875 C 140.703125 145.546875 185.15625 101.25 239.609375 101.25 " transform="matrix(0.05,0,0,0.05,0,0)"/>
<path style="fill-rule:evenodd;fill:rgb(100%,100%,0%);fill-opacity:1;stroke-width:0.573;stroke-linecap:round;stroke-linejoin:round;stroke:rgb(0%,0%,0%);stroke-opacity:1;stroke-miterlimit:4;" d="M 239.921875 100.9375 C 294.453125 100.9375 338.90625 145.390625 338.90625 199.921875 C 338.90625 254.453125 294.453125 298.984375 239.921875 298.984375 C 185.390625 298.984375 140.9375 254.453125 140.9375 199.921875 C 140.9375 145.390625 185.390625 100.9375 239.921875 100.9375 Z M 143.046875 199.921875 C 143.046875 253.203125 186.796875 296.796875 239.921875 296.796875 C 292.96875 296.796875 336.71875 253.203125 336.71875 199.921875 C 336.71875 146.640625 292.96875 103.125 239.921875 103.125 C 186.796875 103.125 143.046875 146.640625 143.046875 199.921875 Z M 143.046875 199.921875 " transform="matrix(0.05,0,0,0.05,0,0)"/>
<path style="fill-rule:evenodd;fill:rgb(100%,100%,0%);fill-opacity:1;stroke-width:0.573;stroke-linecap:round;stroke-linejoin:round;stroke:rgb(0%,0%,0%);stroke-opacity:1;stroke-miterlimit:4;" d="M 240 109.140625 C 289.6875 109.140625 330.703125 149.921875 330.703125 199.84375 C 330.703125 249.6875 289.6875 290.546875 240 290.546875 C 190.234375 290.546875 149.296875 249.6875 149.296875 199.84375 C 149.296875 149.921875 190.234375 109.140625 240 109.140625 Z M 151.484375 199.84375 C 151.484375 248.515625 191.484375 288.359375 240 288.359375 C 288.515625 288.359375 328.515625 248.515625 328.515625 199.84375 C 328.515625 151.171875 288.515625 111.328125 240 111.328125 C 191.484375 111.328125 151.484375 151.171875 151.484375 199.84375 Z M 151.484375 199.84375 " transform="matrix(0.05,0,0,0.05,0,0)"/>
<path style="fill-rule:evenodd;fill:rgb(100%,100%,0%);fill-opacity:1;stroke-width:0.573;stroke-linecap:round;stroke-linejoin:round;stroke:rgb(0%,0%,0%);stroke-opacity:1;stroke-miterlimit:4;" d="M 243.984375 100.546875 L 235.46875 100.546875 L 235.46875 299.453125 L 243.984375 299.453125 Z M 243.984375 100.546875 " transform="matrix(0.05,0,0,0.05,0,0)"/>
<path style="fill-rule:evenodd;fill:rgb(100%,100%,0%);fill-opacity:1;stroke-width:0.573;stroke-linecap:round;stroke-linejoin:round;stroke:rgb(0%,0%,0%);stroke-opacity:1;stroke-miterlimit:4;" d="M 243.125 99.375 L 245.3125 99.375 L 245.3125 300.625 L 243.125 300.625 Z M 234.6875 99.375 L 236.875 99.375 L 236.875 300.625 L 234.6875 300.625 Z M 234.6875 99.375 " transform="matrix(0.05,0,0,0.05,0,0)"/>
<path style="fill-rule:evenodd;fill:rgb(100%,100%,0%);fill-opacity:1;stroke-width:0.573;stroke-linecap:round;stroke-linejoin:round;stroke:rgb(0%,0%,0%);stroke-opacity:1;stroke-miterlimit:4;" d="M 338.984375 203.75 L 338.984375 196.40625 L 332.96875 190.859375 L 298.984375 181.796875 L 250 176.796875 L 191.015625 179.84375 L 148.984375 189.84375 L 140.546875 196.09375 L 140.546875 203.4375 L 162.03125 193.828125 L 212.96875 185.859375 L 262.03125 185.859375 L 297.96875 189.84375 L 322.96875 195.859375 Z M 338.984375 203.75 " transform="matrix(0.05,0,0,0.05,0,0)"/>
<path style="fill-rule:evenodd;fill:rgb(100%,100%,0%);fill-opacity:1;stroke-width:0.573;stroke-linecap:round;stroke-linejoin:round;stroke:rgb(0%,0%,0%);stroke-opacity:1;stroke-miterlimit:4;" d="M 239.921875 184.609375 C 263.359375 184.53125 286.015625 186.796875 303.984375 190.3125 C 322.578125 194.0625 335.625 198.671875 340.15625 203.90625 L 340.078125 206.484375 C 334.765625 200 317.109375 195.234375 303.59375 192.5 C 285.703125 189.0625 263.203125 186.796875 239.921875 186.796875 C 215.390625 186.875 192.578125 189.21875 175 192.65625 C 160.859375 195.46875 142.03125 201.015625 139.6875 206.484375 L 139.6875 203.828125 C 140.9375 200 155 194.296875 174.609375 190.390625 C 192.34375 186.953125 215.234375 184.609375 239.921875 184.609375 Z M 239.921875 176.09375 C 263.359375 176.09375 286.015625 178.359375 304.0625 181.796875 C 322.578125 185.546875 335.625 190.15625 340.15625 195.390625 L 340.15625 197.96875 C 334.765625 191.484375 317.1875 186.71875 303.59375 183.984375 C 285.78125 180.546875 263.203125 178.28125 239.921875 178.359375 C 215.390625 178.359375 192.65625 180.703125 175.078125 184.140625 C 161.484375 186.71875 141.875 192.5 139.6875 197.96875 L 139.6875 195.3125 C 140.9375 191.5625 155.234375 185.703125 174.6875 181.875 C 192.421875 178.4375 215.3125 176.171875 239.921875 176.09375 Z M 239.453125 132.8125 C 276.328125 132.578125 308.4375 137.96875 323.203125 145.46875 L 328.515625 154.765625 C 315.78125 147.890625 281.09375 140.703125 239.53125 141.796875 C 205.703125 141.953125 169.53125 145.46875 151.328125 155.15625 L 157.734375 144.453125 C 172.65625 136.71875 207.8125 132.8125 239.453125 132.8125 " transform="matrix(0.05,0,0,0.05,0,0)"/>
<path style="fill-rule:evenodd;fill:rgb(100%,100%,0%);fill-opacity:1;stroke-width:0.573;stroke-linecap:round;stroke-linejoin:round;stroke:rgb(0%,0%,0%);stroke-opacity:1;stroke-miterlimit:4;" d="M 240 140.46875 C 261.015625 140.390625 281.328125 141.5625 297.421875 144.453125 C 312.5 147.265625 326.796875 151.484375 328.90625 153.75 L 330.46875 156.5625 C 325.46875 153.28125 313.046875 149.6875 297.109375 146.640625 C 281.09375 143.671875 260.859375 142.65625 239.921875 142.734375 C 216.25 142.65625 197.8125 143.90625 181.953125 146.640625 C 165.234375 149.765625 153.59375 154.21875 150.78125 156.328125 L 152.34375 153.359375 C 157.890625 150.546875 166.71875 147.109375 181.5625 144.453125 C 197.890625 141.484375 216.5625 140.546875 240 140.46875 Z M 240 131.953125 C 260.078125 131.875 279.921875 133.046875 295.390625 135.78125 C 307.65625 138.203125 319.6875 141.875 324.140625 145.234375 L 326.40625 148.90625 C 322.5 144.53125 307.578125 140.3125 294.453125 137.96875 C 279.140625 135.390625 260.078125 134.296875 240 134.140625 C 218.828125 134.21875 199.375 135.46875 184.21875 138.28125 C 169.765625 141.015625 160.46875 144.21875 156.484375 146.796875 L 158.515625 143.671875 C 163.984375 140.859375 172.8125 138.203125 183.828125 136.09375 C 199.140625 133.28125 218.75 132.03125 240 131.953125 Z M 289.140625 241.09375 C 270.9375 237.65625 252.65625 237.1875 239.921875 237.34375 C 178.515625 238.046875 158.671875 249.921875 156.25 253.515625 L 151.640625 246.09375 C 167.34375 234.765625 200.78125 228.359375 240.234375 229.0625 C 260.78125 229.375 278.515625 230.703125 293.359375 233.59375 L 289.140625 241.09375 " transform="matrix(0.05,0,0,0.05,0,0)"/>
<path style="fill-rule:evenodd;fill:rgb(100%,100%,0%);fill-opacity:1;stroke-width:0.55;stroke-linecap:round;stroke-linejoin:round;stroke:rgb(0%,0%,0%);stroke-opacity:1;stroke-miterlimit:4;" d="M 239.609375 236.25 C 256.640625 236.5625 273.4375 237.265625 289.609375 240.234375 L 288.4375 242.34375 C 273.4375 239.53125 257.421875 238.515625 239.609375 238.59375 C 216.953125 238.4375 194.0625 240.546875 174.0625 246.25 C 167.8125 247.96875 157.34375 252.03125 156.328125 255.390625 L 155.15625 253.4375 C 155.46875 251.484375 161.796875 247.421875 173.59375 244.0625 C 196.40625 237.578125 217.8125 236.40625 239.609375 236.25 Z M 240.390625 227.65625 C 258.046875 228.046875 276.328125 228.828125 294.0625 232.34375 L 292.890625 234.53125 C 276.796875 231.328125 261.484375 230.234375 240.46875 229.921875 C 217.734375 230 193.59375 231.640625 171.71875 237.96875 C 164.609375 240.078125 152.421875 244.53125 151.953125 248.046875 L 150.78125 245.9375 C 151.09375 242.734375 161.640625 238.59375 171.171875 235.78125 C 193.28125 229.375 217.421875 227.734375 240.390625 227.65625 Z M 240.390625 227.65625 " transform="matrix(0.05,0,0,0.05,0,0)"/>
<path style="fill-rule:evenodd;fill:rgb(100%,100%,0%);fill-opacity:1;stroke-width:0.573;stroke-linecap:round;stroke-linejoin:round;stroke:rgb(0%,0%,0%);stroke-opacity:1;stroke-miterlimit:4;" d="M 327.578125 247.1875 L 320.234375 258.671875 L 298.984375 239.84375 L 243.984375 202.8125 L 182.03125 168.828125 L 149.84375 157.8125 L 156.640625 145.078125 L 158.984375 143.828125 L 178.984375 148.828125 L 245 182.8125 L 282.96875 206.796875 L 315 229.84375 L 327.96875 244.84375 Z M 327.578125 247.1875 " transform="matrix(0.05,0,0,0.05,0,0)"/>
<path style="fill-rule:evenodd;fill:rgb(100%,100%,0%);fill-opacity:1;stroke-width:0.573;stroke-linecap:round;stroke-linejoin:round;stroke:rgb(0%,0%,0%);stroke-opacity:1;stroke-miterlimit:4;" d="M 148.671875 158.125 C 154.296875 154.296875 195.78125 172.734375 239.21875 198.984375 C 282.5 225.234375 323.90625 254.84375 320.15625 260.390625 L 318.90625 262.34375 L 318.359375 262.8125 C 318.4375 262.734375 319.0625 261.953125 318.28125 259.921875 C 316.484375 253.828125 287.109375 230.390625 238.4375 201.015625 C 190.9375 172.65625 151.328125 155.625 147.421875 160.46875 Z M 329.0625 247.03125 C 332.65625 240 294.140625 211.015625 246.484375 182.734375 C 197.65625 155.078125 162.5 138.828125 156.015625 143.671875 L 154.609375 146.25 C 154.609375 146.40625 154.6875 146.09375 155 145.859375 C 156.09375 144.84375 158.046875 144.921875 158.90625 144.921875 C 170 145.078125 201.640625 159.609375 245.9375 185 C 265.390625 196.328125 328.046875 236.484375 327.8125 247.8125 C 327.8125 248.75 327.890625 248.984375 327.5 249.453125 Z M 329.0625 247.03125 " transform="matrix(0.05,0,0,0.05,0,0)"/>
<path style="fill-rule:nonzero;fill:rgb(100%,100%,100%);fill-opacity:1;stroke-width:0.67;stroke-linecap:butt;stroke-linejoin:miter;stroke:rgb(0%,0%,0%);stroke-opacity:1;stroke-miterlimit:4;" d="M 180.625 211.031375 C 180.625 227.281375 187.265625 241.968875 198.046875 252.750125 C 208.90625 263.531375 223.59375 270.32825 239.84375 270.32825 C 256.25 270.32825 271.09375 263.687625 281.875 252.906375 C 292.65625 242.20325 299.296875 227.3595 299.296875 211.031375 L 299.296875 131.89075 L 180.625 131.7345 Z M 180.625 211.031375 " transform="matrix(0.05,0,0,0.05,0,-0.0086)"/>
<path style="fill-rule:nonzero;fill:rgb(100%,0%,0%);fill-opacity:1;stroke-width:0.507;stroke-linecap:butt;stroke-linejoin:miter;stroke:rgb(0%,0%,0%);stroke-opacity:1;stroke-miterlimit:4;" d="M 182.8125 211.1095 L 182.8125 211.187625 C 182.8125 226.7345 189.296875 240.875125 199.609375 251.187625 C 209.921875 261.500125 224.21875 267.906375 239.84375 267.906375 C 255.46875 267.906375 269.6875 261.500125 280 251.26575 C 290.3125 241.031375 296.71875 226.812625 296.71875 211.187625 L 296.71875 134.39075 L 182.890625 134.39075 L 182.8125 211.1095 M 273.828125 157.3595 L 273.828125 211.422 C 273.828125 212.82825 273.75 214.312625 273.59375 215.64075 C 272.65625 223.375125 269.0625 230.172 263.828125 235.406375 C 257.65625 241.500125 249.140625 245.32825 239.765625 245.32825 C 230.46875 245.32825 222.109375 241.343875 215.9375 235.250125 C 209.609375 228.922 205.9375 220.250125 205.9375 211.26575 L 205.9375 157.281375 Z M 273.828125 157.3595 " transform="matrix(0.05,0,0,0.05,0,-0.0086)"/>
<path style=" stroke:none;fill-rule:nonzero;fill:rgb(100%,100%,0%);fill-opacity:1;" d="M 9.507812 7.714844 C 9.515625 7.4375 9.710938 7.371094 9.714844 7.371094 C 9.714844 7.371094 9.925781 7.441406 9.925781 7.714844 L 9.507812 7.714844 "/>
<path style="fill-rule:nonzero;fill:rgb(100%,100%,0%);fill-opacity:1;stroke-width:0.5;stroke-linecap:butt;stroke-linejoin:miter;stroke:rgb(0%,0%,0%);stroke-opacity:1;stroke-miterlimit:4;" d="M 186.796875 147.672 L 186.09375 154.000125 L 190.234375 154.07825 C 190.3125 148.76575 194.21875 147.906375 194.375 147.906375 C 194.453125 147.906375 198.359375 149.07825 198.4375 154.07825 L 202.578125 154.07825 L 201.796875 147.672 Z M 185.859375 154.07825 L 202.8125 154.07825 C 203.125 154.07825 203.4375 154.39075 203.4375 154.8595 C 203.4375 155.250125 203.125 155.64075 202.8125 155.64075 L 185.859375 155.64075 C 185.46875 155.64075 185.234375 155.250125 185.234375 154.8595 C 185.234375 154.39075 185.46875 154.07825 185.859375 154.07825 Z M 185.859375 154.07825 " transform="matrix(0.05,0,0,0.05,0,-0.0086)"/>
<path style="fill-rule:nonzero;fill:rgb(100%,100%,0%);fill-opacity:1;stroke-width:0.5;stroke-linecap:butt;stroke-linejoin:miter;stroke:rgb(0%,0%,0%);stroke-opacity:1;stroke-miterlimit:4;" d="M 192.03125 154.000125 C 192.03125 150.718875 194.296875 149.781375 194.296875 149.781375 C 194.296875 149.781375 196.640625 150.718875 196.640625 154.000125 L 192.03125 154.000125 M 186.171875 145.01575 L 202.421875 145.01575 C 202.8125 145.01575 203.046875 145.406375 203.046875 145.718875 C 203.046875 146.1095 202.8125 146.422 202.421875 146.422 L 186.171875 146.422 C 185.859375 146.422 185.625 146.1095 185.625 145.718875 C 185.625 145.406375 185.859375 145.01575 186.171875 145.01575 Z M 186.5625 146.500125 L 202.109375 146.500125 C 202.421875 146.500125 202.65625 146.812625 202.65625 147.20325 C 202.65625 147.593875 202.421875 147.906375 202.109375 147.906375 L 186.5625 147.906375 C 186.25 147.906375 185.9375 147.593875 185.9375 147.20325 C 185.9375 146.812625 186.25 146.500125 186.5625 146.500125 Z M 191.5625 135.875125 L 192.8125 135.875125 L 192.8125 136.7345 L 193.671875 136.7345 L 193.671875 135.875125 L 194.921875 135.875125 L 194.921875 136.7345 L 195.859375 136.7345 L 195.859375 135.875125 L 197.109375 135.875125 L 197.109375 137.906375 C 197.109375 138.218875 196.875 138.375125 196.5625 138.375125 L 192.109375 138.375125 C 191.875 138.375125 191.5625 138.14075 191.5625 137.906375 Z M 196.171875 138.531375 L 196.484375 145.01575 L 192.1875 145.01575 L 192.421875 138.531375 L 196.171875 138.531375 " transform="matrix(0.05,0,0,0.05,0,-0.0086)"/>
<path style="fill-rule:nonzero;fill:rgb(100%,100%,0%);fill-opacity:1;stroke-width:0.5;stroke-linecap:butt;stroke-linejoin:miter;stroke:rgb(0%,0%,0%);stroke-opacity:1;stroke-miterlimit:4;" d="M 190.9375 141.57825 L 191.09375 145.01575 L 186.953125 145.01575 L 187.03125 141.57825 Z M 190.9375 141.57825 " transform="matrix(0.05,0,0,0.05,0,-0.0086)"/>
<path style="fill-rule:nonzero;fill:rgb(100%,100%,0%);fill-opacity:1;stroke-width:0.5;stroke-linecap:butt;stroke-linejoin:miter;stroke:rgb(0%,0%,0%);stroke-opacity:1;stroke-miterlimit:4;" d="M 190.9535 141.57825 L 191.10975 145.01575 L 186.969125 145.01575 L 187.04725 141.57825 Z M 190.9535 141.57825 " transform="matrix(0.05,0,0,0.05,0.53045,-0.0086)"/>
<path style="fill-rule:nonzero;fill:rgb(100%,100%,0%);fill-opacity:1;stroke-width:0.5;stroke-linecap:butt;stroke-linejoin:miter;stroke:rgb(0%,0%,0%);stroke-opacity:1;stroke-miterlimit:4;" d="M 186.328125 139.07825 L 187.5 139.07825 L 187.5 139.937625 L 188.359375 139.937625 L 188.359375 139.000125 L 189.609375 139.000125 L 189.609375 139.937625 L 190.46875 139.937625 L 190.46875 139.000125 L 191.71875 139.000125 L 191.71875 141.031375 C 191.71875 141.343875 191.484375 141.57825 191.171875 141.57825 L 186.875 141.57825 C 186.5625 141.57825 186.328125 141.343875 186.328125 141.031375 Z M 186.328125 139.07825 " transform="matrix(0.05,0,0,0.05,0,-0.0086)"/>
<path style="fill-rule:nonzero;fill:rgb(100%,100%,0%);fill-opacity:1;stroke-width:0.5;stroke-linecap:butt;stroke-linejoin:miter;stroke:rgb(0%,0%,0%);stroke-opacity:1;stroke-miterlimit:4;" d="M 186.266 139.07825 L 187.516 139.07825 L 187.516 139.937625 L 188.375375 139.937625 L 188.375375 139.000125 L 189.625375 139.000125 L 189.625375 139.937625 L 190.48475 139.937625 L 190.48475 139.000125 L 191.73475 139.000125 L 191.73475 141.031375 C 191.73475 141.343875 191.500375 141.57825 191.187875 141.57825 L 186.891 141.57825 C 186.5785 141.57825 186.266 141.343875 186.266 141.031375 Z M 186.266 139.07825 " transform="matrix(0.05,0,0,0.05,0.53045,-0.0086)"/>
<path style=" stroke:none;fill-rule:nonzero;fill:rgb(0%,0%,0%);fill-opacity:1;" d="M 9.695312 7.023438 C 9.695312 6.992188 9.738281 6.988281 9.738281 7.023438 L 9.738281 7.097656 L 9.695312 7.097656 L 9.695312 7.023438 "/>
<path style=" stroke:none;fill-rule:nonzero;fill:rgb(0%,0%,0%);fill-opacity:1;" d="M 9.429688 7.132812 C 9.429688 7.101562 9.46875 7.101562 9.46875 7.132812 L 9.46875 7.191406 L 9.429688 7.191406 L 9.429688 7.132812 "/>
<path style=" stroke:none;fill-rule:nonzero;fill:rgb(0%,0%,0%);fill-opacity:1;" d="M 9.960938 7.132812 C 9.960938 7.101562 10.003906 7.101562 10 7.132812 L 10 7.191406 L 9.960938 7.191406 L 9.960938 7.132812 "/>
<path style=" stroke:none;fill-rule:nonzero;fill:rgb(100%,100%,0%);fill-opacity:1;" d="M 9.507812 10.027344 C 9.515625 9.753906 9.710938 9.6875 9.714844 9.6875 C 9.714844 9.6875 9.925781 9.757812 9.925781 10.03125 L 9.507812 10.027344 "/>
<path style="fill-rule:nonzero;fill:rgb(100%,100%,0%);fill-opacity:1;stroke-width:0.5;stroke-linecap:butt;stroke-linejoin:miter;stroke:rgb(0%,0%,0%);stroke-opacity:1;stroke-miterlimit:4;" d="M 186.796875 147.680125 L 186.09375 154.00825 L 190.234375 154.00825 C 190.3125 148.773875 194.21875 147.9145 194.375 147.9145 C 194.453125 147.9145 198.359375 149.086375 198.4375 154.00825 L 202.578125 154.00825 L 201.796875 147.680125 Z M 185.859375 154.086375 L 202.8125 154.086375 C 203.125 154.086375 203.4375 154.398875 203.4375 154.867625 C 203.4375 155.25825 203.125 155.648875 202.8125 155.648875 L 185.859375 155.648875 C 185.46875 155.648875 185.234375 155.25825 185.234375 154.867625 C 185.234375 154.398875 185.46875 154.086375 185.859375 154.086375 Z M 185.859375 154.086375 " transform="matrix(0.05,0,0,0.05,0,2.3074)"/>
<path style="fill-rule:nonzero;fill:rgb(100%,100%,0%);fill-opacity:1;stroke-width:0.5;stroke-linecap:butt;stroke-linejoin:miter;stroke:rgb(0%,0%,0%);stroke-opacity:1;stroke-miterlimit:4;" d="M 192.03125 154.00825 C 192.03125 150.727 194.296875 149.7895 194.296875 149.7895 C 194.296875 149.7895 196.640625 150.727 196.640625 154.00825 L 192.03125 154.00825 M 186.171875 145.023875 L 202.421875 145.023875 C 202.8125 145.023875 203.046875 145.336375 203.046875 145.727 C 203.046875 146.117625 202.8125 146.430125 202.421875 146.430125 L 186.171875 146.430125 C 185.859375 146.430125 185.625 146.117625 185.625 145.727 C 185.625 145.336375 185.859375 145.023875 186.171875 145.023875 Z M 186.5625 146.50825 L 202.109375 146.50825 C 202.421875 146.50825 202.65625 146.82075 202.65625 147.211375 C 202.65625 147.523875 202.421875 147.9145 202.109375 147.9145 L 186.5625 147.9145 C 186.25 147.9145 185.9375 147.523875 185.9375 147.211375 C 185.9375 146.82075 186.25 146.50825 186.5625 146.50825 Z M 191.5625 135.88325 L 192.8125 135.88325 L 192.8125 136.742625 L 193.671875 136.742625 L 193.671875 135.88325 L 194.921875 135.88325 L 194.921875 136.742625 L 195.859375 136.742625 L 195.859375 135.88325 L 197.109375 135.88325 L 197.109375 137.836375 C 197.109375 138.227 196.875 138.38325 196.5625 138.38325 L 192.109375 138.38325 C 191.875 138.38325 191.5625 138.148875 191.5625 137.836375 Z M 196.171875 138.5395 L 196.484375 145.023875 L 192.1875 145.023875 L 192.421875 138.5395 L 196.171875 138.5395 " transform="matrix(0.05,0,0,0.05,0,2.3074)"/>
<path style="fill-rule:nonzero;fill:rgb(100%,100%,0%);fill-opacity:1;stroke-width:0.5;stroke-linecap:butt;stroke-linejoin:miter;stroke:rgb(0%,0%,0%);stroke-opacity:1;stroke-miterlimit:4;" d="M 190.9375 141.586375 L 191.09375 145.023875 L 186.953125 145.023875 L 187.03125 141.586375 Z M 190.9375 141.586375 " transform="matrix(0.05,0,0,0.05,0,2.3074)"/>
<path style="fill-rule:nonzero;fill:rgb(100%,100%,0%);fill-opacity:1;stroke-width:0.5;stroke-linecap:butt;stroke-linejoin:miter;stroke:rgb(0%,0%,0%);stroke-opacity:1;stroke-miterlimit:4;" d="M 190.9535 141.586375 L 191.10975 145.023875 L 186.969125 145.023875 L 187.04725 141.586375 Z M 190.9535 141.586375 " transform="matrix(0.05,0,0,0.05,0.53045,2.3074)"/>
<path style="fill-rule:nonzero;fill:rgb(100%,100%,0%);fill-opacity:1;stroke-width:0.5;stroke-linecap:butt;stroke-linejoin:miter;stroke:rgb(0%,0%,0%);stroke-opacity:1;stroke-miterlimit:4;" d="M 186.328125 139.00825 L 187.5 139.00825 L 187.5 139.94575 L 188.359375 139.94575 L 188.359375 139.00825 L 189.609375 139.00825 L 189.609375 139.94575 L 190.46875 139.94575 L 190.46875 139.00825 L 191.71875 139.00825 L 191.71875 141.0395 C 191.71875 141.352 191.484375 141.586375 191.171875 141.586375 L 186.875 141.586375 C 186.5625 141.586375 186.328125 141.352 186.328125 141.0395 Z M 186.328125 139.00825 " transform="matrix(0.05,0,0,0.05,0,2.3074)"/>
<path style="fill-rule:nonzero;fill:rgb(100%,100%,0%);fill-opacity:1;stroke-width:0.5;stroke-linecap:butt;stroke-linejoin:miter;stroke:rgb(0%,0%,0%);stroke-opacity:1;stroke-miterlimit:4;" d="M 186.266 139.00825 L 187.516 139.00825 L 187.516 139.94575 L 188.375375 139.94575 L 188.375375 139.00825 L 189.625375 139.00825 L 189.625375 139.94575 L 190.48475 139.94575 L 190.48475 139.00825 L 191.73475 139.00825 L 191.73475 141.0395 C 191.73475 141.352 191.500375 141.586375 191.187875 141.586375 L 186.891 141.586375 C 186.5785 141.586375 186.266 141.352 186.266 141.0395 Z M 186.266 139.00825 " transform="matrix(0.05,0,0,0.05,0.53045,2.3074)"/>
<path style=" stroke:none;fill-rule:nonzero;fill:rgb(0%,0%,0%);fill-opacity:1;" d="M 9.695312 9.339844 C 9.695312 9.304688 9.738281 9.304688 9.738281 9.339844 L 9.738281 9.414062 L 9.695312 9.414062 L 9.695312 9.339844 "/>
<path style=" stroke:none;fill-rule:nonzero;fill:rgb(0%,0%,0%);fill-opacity:1;" d="M 9.429688 9.449219 C 9.429688 9.417969 9.46875 9.417969 9.46875 9.449219 L 9.46875 9.507812 L 9.429688 9.507812 L 9.429688 9.449219 "/>
<path style=" stroke:none;fill-rule:nonzero;fill:rgb(0%,0%,0%);fill-opacity:1;" d="M 9.960938 9.449219 C 9.960938 9.417969 10.003906 9.417969 10 9.449219 L 10 9.507812 L 9.960938 9.507812 L 9.960938 9.449219 "/>
<path style=" stroke:none;fill-rule:nonzero;fill:rgb(100%,100%,0%);fill-opacity:1;" d="M 10.414062 12.441406 C 10.222656 12.242188 10.3125 12.054688 10.3125 12.054688 C 10.3125 12.050781 10.511719 11.953125 10.707031 12.148438 L 10.414062 12.441406 "/>
<path style="fill-rule:nonzero;fill:rgb(100%,100%,0%);fill-opacity:1;stroke-width:0.5;stroke-linecap:butt;stroke-linejoin:miter;stroke:rgb(0%,0%,0%);stroke-opacity:1;stroke-miterlimit:4;" d="M 186.839901 147.670738 L 186.099353 154.021079 L 190.297773 154.035881 C 190.261033 148.78766 194.2416 147.917805 194.352085 147.918195 C 194.46257 147.918584 198.325251 149.14755 198.418597 154.009268 L 202.617017 154.02407 L 201.810779 147.668276 Z M 185.822946 154.075347 L 202.78255 154.079897 C 203.169441 154.026018 203.44429 154.413688 203.442732 154.855627 C 203.441174 155.297566 203.108551 155.627852 202.777097 155.626683 L 185.817493 155.622134 C 185.486039 155.620965 185.21119 155.233295 185.157311 154.846403 C 185.158869 154.404464 185.491492 154.074179 185.822946 154.075347 Z M 185.822946 154.075347 " transform="matrix(0.0352305,-0.0354798,0.0354798,0.0352305,-1.767094,13.746839)"/>
<path style="fill-rule:nonzero;fill:rgb(100%,100%,0%);fill-opacity:1;stroke-width:0.5;stroke-linecap:butt;stroke-linejoin:miter;stroke:rgb(0%,0%,0%);stroke-opacity:1;stroke-miterlimit:4;" d="M 192.010482 153.986676 C 192.022167 150.672133 194.234978 149.796046 194.290416 149.740998 C 194.290416 149.740998 196.60709 150.743541 196.650841 154.003036 L 192.010482 153.986676 M 186.241389 145.072204 L 202.427599 145.074026 C 202.814491 145.020147 203.089339 145.407818 203.088171 145.739272 C 203.086613 146.181211 202.809427 146.456449 202.477973 146.455281 L 186.181278 146.453068 C 185.849823 146.4519 185.574585 146.174714 185.576143 145.732775 C 185.577312 145.401321 185.854887 145.015598 186.241389 145.072204 Z M 186.512732 146.454237 L 202.091081 146.50916 C 202.422536 146.510328 202.697774 146.787514 202.641168 147.174016 C 202.695047 147.560907 202.417861 147.836145 202.086407 147.834977 L 186.507668 147.890539 C 186.231651 147.834322 185.956413 147.557137 185.957581 147.225683 C 185.95914 146.783744 186.236325 146.508505 186.512732 146.454237 Z M 191.576987 135.920667 L 192.792319 135.924952 L 192.84464 136.753782 L 193.728518 136.756898 L 193.731635 135.87302 L 194.946967 135.877305 L 194.943851 136.761183 L 195.827729 136.764299 L 195.830845 135.880421 L 197.101614 135.829658 L 197.14965 137.873821 C 197.093434 138.149838 196.871686 138.370028 196.540231 138.36886 L 192.175889 138.408716 C 191.844435 138.407547 191.569197 138.130362 191.569976 137.909392 Z M 196.207998 138.588661 L 196.461423 145.052992 L 192.152518 145.037801 L 192.451517 138.575417 L 196.207998 138.588661 " transform="matrix(0.0352305,-0.0354798,0.0354798,0.0352305,-1.767094,13.746839)"/>
<path style="fill-rule:nonzero;fill:rgb(100%,100%,0%);fill-opacity:1;stroke-width:0.5;stroke-linecap:butt;stroke-linejoin:miter;stroke:rgb(0%,0%,0%);stroke-opacity:1;stroke-miterlimit:4;" d="M 190.894213 141.553052 L 191.04767 145.033906 L 186.959735 145.019493 L 187.082295 141.594856 Z M 190.894213 141.553052 " transform="matrix(0.0352305,-0.0354798,0.0354798,0.0352305,-1.767094,13.746839)"/>
<path style="fill-rule:nonzero;fill:rgb(100%,100%,0%);fill-opacity:1;stroke-width:0.5;stroke-linecap:butt;stroke-linejoin:miter;stroke:rgb(0%,0%,0%);stroke-opacity:1;stroke-miterlimit:4;" d="M 190.947186 141.535398 L 191.100643 145.016252 L 186.95727 145.056887 L 187.024783 141.576813 Z M 190.947186 141.535398 " transform="matrix(0.0352305,-0.0354798,0.0354798,0.0352305,-1.393334,13.370434)"/>
<path style="fill-rule:nonzero;fill:rgb(100%,100%,0%);fill-opacity:1;stroke-width:0.5;stroke-linecap:butt;stroke-linejoin:miter;stroke:rgb(0%,0%,0%);stroke-opacity:1;stroke-miterlimit:4;" d="M 186.31786 139.05098 L 187.533193 139.055264 L 187.530076 139.939142 L 188.358907 139.886822 L 188.362023 139.002944 L 189.577355 139.007228 L 189.629287 139.946543 L 190.458117 139.894222 L 190.461233 139.010344 L 191.676565 139.014629 L 191.724602 141.058792 C 191.723433 141.390246 191.446637 141.554999 191.225667 141.55422 L 186.861325 141.594077 C 186.585308 141.53786 186.254633 141.315722 186.310849 141.039705 Z M 186.31786 139.05098 " transform="matrix(0.0352305,-0.0354798,0.0354798,0.0352305,-1.767094,13.746839)"/>
<path style="fill-rule:nonzero;fill:rgb(100%,100%,0%);fill-opacity:1;stroke-width:0.5;stroke-linecap:butt;stroke-linejoin:miter;stroke:rgb(0%,0%,0%);stroke-opacity:1;stroke-miterlimit:4;" d="M 186.260349 139.032937 L 187.475681 139.037222 L 187.472565 139.9211 L 188.356443 139.924216 L 188.359559 139.040338 L 189.574891 139.044622 L 189.571775 139.9285 L 190.455653 139.931617 L 190.458769 139.047739 L 191.729538 138.996976 L 191.66709 141.040749 C 191.721358 141.317156 191.49961 141.537346 191.168156 141.536177 L 186.85925 141.520986 C 186.582844 141.575255 186.307606 141.298069 186.308385 141.077099 Z M 186.260349 139.032937 " transform="matrix(0.0352305,-0.0354798,0.0354798,0.0352305,-1.393334,13.370434)"/>
<path style=" stroke:none;fill-rule:nonzero;fill:rgb(0%,0%,0%);fill-opacity:1;" d="M 10.054688 11.820312 C 10.03125 11.800781 10.0625 11.769531 10.082031 11.789062 L 10.136719 11.84375 L 10.105469 11.875 L 10.054688 11.820312 "/>
<path style=" stroke:none;fill-rule:nonzero;fill:rgb(0%,0%,0%);fill-opacity:1;" d="M 9.945312 12.089844 C 9.921875 12.066406 9.953125 12.039062 9.972656 12.058594 L 10.015625 12.101562 L 9.988281 12.128906 L 9.945312 12.089844 "/>
<path style=" stroke:none;fill-rule:nonzero;fill:rgb(0%,0%,0%);fill-opacity:1;" d="M 10.320312 11.710938 C 10.296875 11.691406 10.328125 11.660156 10.347656 11.683594 L 10.390625 11.722656 L 10.359375 11.753906 L 10.320312 11.710938 "/>
<path style=" stroke:none;fill-rule:nonzero;fill:rgb(100%,100%,0%);fill-opacity:1;" d="M 11.796875 7.714844 C 11.800781 7.4375 11.996094 7.371094 12 7.371094 C 12 7.371094 12.210938 7.441406 12.210938 7.714844 L 11.796875 7.714844 "/>
<path style="fill-rule:nonzero;fill:rgb(100%,100%,0%);fill-opacity:1;stroke-width:0.5;stroke-linecap:butt;stroke-linejoin:miter;stroke:rgb(0%,0%,0%);stroke-opacity:1;stroke-miterlimit:4;" d="M 186.786 147.672 L 186.161 154.000125 L 190.301625 154.07825 C 190.301625 148.76575 194.207875 147.906375 194.364125 147.906375 C 194.44225 147.906375 198.3485 149.07825 198.426625 154.07825 L 202.56725 154.07825 L 201.864125 147.672 Z M 185.8485 154.07825 L 202.801625 154.07825 C 203.114125 154.07825 203.426625 154.39075 203.426625 154.8595 C 203.426625 155.250125 203.114125 155.64075 202.801625 155.64075 L 185.8485 155.64075 C 185.457875 155.64075 185.2235 155.250125 185.2235 154.8595 C 185.2235 154.39075 185.457875 154.07825 185.8485 154.07825 Z M 185.8485 154.07825 " transform="matrix(0.05,0,0,0.05,2.2857,-0.0086)"/>
<path style="fill-rule:nonzero;fill:rgb(100%,100%,0%);fill-opacity:1;stroke-width:0.5;stroke-linecap:butt;stroke-linejoin:miter;stroke:rgb(0%,0%,0%);stroke-opacity:1;stroke-miterlimit:4;" d="M 192.020375 154.000125 C 192.020375 150.718875 194.286 149.781375 194.286 149.781375 C 194.286 149.781375 196.62975 150.718875 196.62975 154.000125 L 192.020375 154.000125 M 186.239125 145.01575 L 202.489125 145.01575 C 202.801625 145.01575 203.114125 145.406375 203.114125 145.718875 C 203.114125 146.1095 202.801625 146.422 202.489125 146.422 L 186.239125 146.422 C 185.8485 146.422 185.614125 146.1095 185.614125 145.718875 C 185.614125 145.406375 185.8485 145.01575 186.239125 145.01575 Z M 186.551625 146.500125 L 202.0985 146.500125 C 202.411 146.500125 202.645375 146.812625 202.645375 147.20325 C 202.645375 147.593875 202.411 147.906375 202.0985 147.906375 L 186.551625 147.906375 C 186.239125 147.906375 185.926625 147.593875 185.926625 147.20325 C 185.926625 146.812625 186.239125 146.500125 186.551625 146.500125 Z M 191.551625 135.875125 L 192.801625 135.875125 L 192.801625 136.7345 L 193.661 136.7345 L 193.661 135.875125 L 194.911 135.875125 L 194.911 136.7345 L 195.8485 136.7345 L 195.8485 135.875125 L 197.0985 135.875125 L 197.0985 137.906375 C 197.0985 138.218875 196.864125 138.375125 196.551625 138.375125 L 192.176625 138.375125 C 191.864125 138.375125 191.551625 138.14075 191.551625 137.906375 Z M 196.161 138.531375 L 196.4735 145.01575 L 192.176625 145.01575 L 192.411 138.531375 L 196.161 138.531375 " transform="matrix(0.05,0,0,0.05,2.2857,-0.0086)"/>
<path style="fill-rule:nonzero;fill:rgb(100%,100%,0%);fill-opacity:1;stroke-width:0.5;stroke-linecap:butt;stroke-linejoin:miter;stroke:rgb(0%,0%,0%);stroke-opacity:1;stroke-miterlimit:4;" d="M 190.926625 141.57825 L 191.082875 145.01575 L 186.94225 145.01575 L 187.0985 141.57825 Z M 190.926625 141.57825 " transform="matrix(0.05,0,0,0.05,2.2857,-0.0086)"/>
<path style="fill-rule:nonzero;fill:rgb(100%,100%,0%);fill-opacity:1;stroke-width:0.5;stroke-linecap:butt;stroke-linejoin:miter;stroke:rgb(0%,0%,0%);stroke-opacity:1;stroke-miterlimit:4;" d="M 190.942625 141.57825 L 191.098875 145.01575 L 186.95825 145.01575 L 187.036375 141.57825 Z M 190.942625 141.57825 " transform="matrix(0.05,0,0,0.05,2.81615,-0.0086)"/>
<path style="fill-rule:nonzero;fill:rgb(100%,100%,0%);fill-opacity:1;stroke-width:0.5;stroke-linecap:butt;stroke-linejoin:miter;stroke:rgb(0%,0%,0%);stroke-opacity:1;stroke-miterlimit:4;" d="M 186.31725 139.07825 L 187.489125 139.07825 L 187.489125 139.937625 L 188.3485 139.937625 L 188.3485 139.000125 L 189.5985 139.000125 L 189.5985 139.937625 L 190.457875 139.937625 L 190.457875 139.000125 L 191.707875 139.000125 L 191.707875 141.031375 C 191.707875 141.343875 191.4735 141.57825 191.161 141.57825 L 186.864125 141.57825 C 186.551625 141.57825 186.31725 141.343875 186.31725 141.031375 Z M 186.31725 139.07825 " transform="matrix(0.05,0,0,0.05,2.2857,-0.0086)"/>
<path style="fill-rule:nonzero;fill:rgb(100%,100%,0%);fill-opacity:1;stroke-width:0.5;stroke-linecap:butt;stroke-linejoin:miter;stroke:rgb(0%,0%,0%);stroke-opacity:1;stroke-miterlimit:4;" d="M 186.33325 139.07825 L 187.505125 139.07825 L 187.505125 139.937625 L 188.3645 139.937625 L 188.3645 139.000125 L 189.6145 139.000125 L 189.6145 139.937625 L 190.473875 139.937625 L 190.473875 139.000125 L 191.723875 139.000125 L 191.723875 141.031375 C 191.723875 141.343875 191.4895 141.57825 191.177 141.57825 L 186.880125 141.57825 C 186.567625 141.57825 186.33325 141.343875 186.33325 141.031375 Z M 186.33325 139.07825 " transform="matrix(0.05,0,0,0.05,2.81615,-0.0086)"/>
<path style=" stroke:none;fill-rule:nonzero;fill:rgb(0%,0%,0%);fill-opacity:1;" d="M 11.980469 7.023438 C 11.980469 6.992188 12.023438 6.988281 12.023438 7.023438 L 12.023438 7.097656 L 11.980469 7.097656 L 11.980469 7.023438 "/>
<path style=" stroke:none;fill-rule:nonzero;fill:rgb(0%,0%,0%);fill-opacity:1;" d="M 11.714844 7.132812 C 11.714844 7.101562 11.757812 7.101562 11.753906 7.132812 L 11.753906 7.191406 L 11.714844 7.191406 L 11.714844 7.132812 "/>
<path style=" stroke:none;fill-rule:nonzero;fill:rgb(0%,0%,0%);fill-opacity:1;" d="M 12.246094 7.132812 C 12.246094 7.101562 12.289062 7.101562 12.289062 7.132812 L 12.289062 7.191406 L 12.246094 7.191406 L 12.246094 7.132812 "/>
<path style=" stroke:none;fill-rule:nonzero;fill:rgb(100%,100%,0%);fill-opacity:1;" d="M 14.480469 7.714844 C 14.472656 7.4375 14.277344 7.371094 14.277344 7.371094 C 14.273438 7.371094 14.066406 7.441406 14.066406 7.714844 L 14.480469 7.714844 "/>
<path style="fill-rule:nonzero;fill:rgb(100%,100%,0%);fill-opacity:1;stroke-width:0.5;stroke-linecap:butt;stroke-linejoin:miter;stroke:rgb(0%,0%,0%);stroke-opacity:1;stroke-miterlimit:4;" d="M 186.82325 147.672 L 186.120125 154.000125 L 190.26075 154.07825 C 190.338875 148.76575 194.245125 147.906375 194.32325 147.906375 C 194.401375 147.906375 198.307625 149.07825 198.463875 154.07825 L 202.6045 154.07825 L 201.82325 147.672 Z M 185.88575 154.07825 L 202.76075 154.07825 C 203.151375 154.07825 203.463875 154.39075 203.463875 154.8595 C 203.463875 155.250125 203.151375 155.64075 202.76075 155.64075 L 185.88575 155.64075 C 185.495125 155.64075 185.182625 155.250125 185.182625 154.8595 C 185.182625 154.39075 185.495125 154.07825 185.88575 154.07825 Z M 185.88575 154.07825 " transform="matrix(-0.05,0,0,0.05,23.9896,-0.0086)"/>
<path style="fill-rule:nonzero;fill:rgb(100%,100%,0%);fill-opacity:1;stroke-width:0.5;stroke-linecap:butt;stroke-linejoin:miter;stroke:rgb(0%,0%,0%);stroke-opacity:1;stroke-miterlimit:4;" d="M 191.9795 154.000125 C 192.057625 150.718875 194.245125 149.781375 194.245125 149.781375 C 194.245125 149.781375 196.588875 150.718875 196.667 154.000125 L 191.9795 154.000125 M 186.19825 145.01575 L 202.44825 145.01575 C 202.76075 145.01575 203.07325 145.406375 203.07325 145.718875 C 203.07325 146.1095 202.76075 146.422 202.44825 146.422 L 186.19825 146.422 C 185.88575 146.422 185.57325 146.1095 185.57325 145.718875 C 185.57325 145.406375 185.88575 145.01575 186.19825 145.01575 Z M 186.588875 146.500125 L 202.057625 146.500125 C 202.44825 146.500125 202.682625 146.812625 202.682625 147.20325 C 202.682625 147.593875 202.44825 147.906375 202.057625 147.906375 L 186.588875 147.906375 C 186.19825 147.906375 185.963875 147.593875 185.963875 147.20325 C 185.963875 146.812625 186.19825 146.500125 186.588875 146.500125 Z M 191.588875 135.875125 L 192.76075 135.875125 L 192.76075 136.7345 L 193.69825 136.7345 L 193.69825 135.875125 L 194.94825 135.875125 L 194.94825 136.7345 L 195.807625 136.7345 L 195.807625 135.875125 L 197.13575 135.875125 L 197.13575 137.906375 C 197.13575 138.218875 196.82325 138.375125 196.588875 138.375125 L 192.13575 138.375125 C 191.82325 138.375125 191.588875 138.14075 191.588875 137.906375 Z M 196.19825 138.531375 L 196.432625 145.01575 L 192.13575 145.01575 L 192.44825 138.531375 L 196.19825 138.531375 " transform="matrix(-0.05,0,0,0.05,23.9896,-0.0086)"/>
<path style="fill-rule:nonzero;fill:rgb(100%,100%,0%);fill-opacity:1;stroke-width:0.5;stroke-linecap:butt;stroke-linejoin:miter;stroke:rgb(0%,0%,0%);stroke-opacity:1;stroke-miterlimit:4;" d="M 190.963875 141.57825 L 191.042 145.01575 L 186.9795 145.01575 L 187.057625 141.57825 Z M 190.963875 141.57825 " transform="matrix(-0.05,0,0,0.05,23.9896,-0.0086)"/>
<path style="fill-rule:nonzero;fill:rgb(100%,100%,0%);fill-opacity:1;stroke-width:0.5;stroke-linecap:butt;stroke-linejoin:miter;stroke:rgb(0%,0%,0%);stroke-opacity:1;stroke-miterlimit:4;" d="M 190.90175 141.57825 L 191.058 145.01575 L 186.917375 145.01575 L 187.073625 141.57825 L 190.979875 141.57825 Z M 190.90175 141.57825 " transform="matrix(-0.05,0,0,0.05,23.45915,-0.0086)"/>
<path style="fill-rule:nonzero;fill:rgb(100%,100%,0%);fill-opacity:1;stroke-width:0.5;stroke-linecap:butt;stroke-linejoin:miter;stroke:rgb(0%,0%,0%);stroke-opacity:1;stroke-miterlimit:4;" d="M 186.276375 139.07825 L 187.526375 139.07825 L 187.526375 139.937625 L 188.38575 139.937625 L 188.38575 139.000125 L 189.63575 139.000125 L 189.63575 139.937625 L 190.495125 139.937625 L 190.495125 139.000125 L 191.745125 139.000125 L 191.745125 141.031375 C 191.745125 141.343875 191.432625 141.57825 191.19825 141.57825 L 186.82325 141.57825 C 186.588875 141.57825 186.276375 141.343875 186.276375 141.031375 Z M 186.276375 139.07825 " transform="matrix(-0.05,0,0,0.05,23.9896,-0.0086)"/>
<path style="fill-rule:nonzero;fill:rgb(100%,100%,0%);fill-opacity:1;stroke-width:0.5;stroke-linecap:butt;stroke-linejoin:miter;stroke:rgb(0%,0%,0%);stroke-opacity:1;stroke-miterlimit:4;" d="M 186.292375 139.07825 L 187.46425 139.07825 L 187.46425 139.937625 L 188.40175 139.937625 L 188.40175 139.000125 L 189.573625 139.000125 L 189.573625 139.937625 L 190.511125 139.937625 L 190.511125 139.000125 L 191.683 139.000125 L 191.683 141.031375 C 191.683 141.343875 191.448625 141.57825 191.21425 141.57825 L 186.83925 141.57825 C 186.604875 141.57825 186.292375 141.343875 186.292375 141.031375 Z M 186.292375 139.07825 " transform="matrix(-0.05,0,0,0.05,23.45915,-0.0086)"/>
<path style=" stroke:none;fill-rule:nonzero;fill:rgb(0%,0%,0%);fill-opacity:1;" d="M 14.292969 7.023438 C 14.296875 6.992188 14.25 6.988281 14.25 7.023438 L 14.25 7.097656 L 14.292969 7.097656 L 14.292969 7.023438 "/>
<path style=" stroke:none;fill-rule:nonzero;fill:rgb(0%,0%,0%);fill-opacity:1;" d="M 14.5625 7.132812 C 14.5625 7.101562 14.519531 7.101562 14.519531 7.132812 L 14.519531 7.191406 L 14.5625 7.191406 L 14.5625 7.132812 "/>
<path style=" stroke:none;fill-rule:nonzero;fill:rgb(0%,0%,0%);fill-opacity:1;" d="M 14.027344 7.132812 C 14.027344 7.101562 13.988281 7.101562 13.988281 7.132812 L 13.988281 7.191406 L 14.027344 7.191406 L 14.027344 7.132812 "/>
<path style=" stroke:none;fill-rule:nonzero;fill:rgb(100%,100%,0%);fill-opacity:1;" d="M 14.480469 10.027344 C 14.472656 9.753906 14.277344 9.6875 14.277344 9.6875 C 14.273438 9.6875 14.066406 9.757812 14.066406 10.03125 L 14.480469 10.027344 "/>
<path style="fill-rule:nonzero;fill:rgb(100%,100%,0%);fill-opacity:1;stroke-width:0.5;stroke-linecap:butt;stroke-linejoin:miter;stroke:rgb(0%,0%,0%);stroke-opacity:1;stroke-miterlimit:4;" d="M 186.82325 147.680125 L 186.120125 154.00825 L 190.26075 154.00825 C 190.338875 148.773875 194.245125 147.9145 194.32325 147.9145 C 194.401375 147.9145 198.307625 149.086375 198.463875 154.00825 L 202.6045 154.00825 L 201.82325 147.680125 Z M 185.88575 154.086375 L 202.76075 154.086375 C 203.151375 154.086375 203.463875 154.398875 203.463875 154.867625 C 203.463875 155.25825 203.151375 155.648875 202.76075 155.648875 L 185.88575 155.648875 C 185.495125 155.648875 185.182625 155.25825 185.182625 154.867625 C 185.182625 154.398875 185.495125 154.086375 185.88575 154.086375 Z M 185.88575 154.086375 " transform="matrix(-0.05,0,0,0.05,23.9896,2.3074)"/>
<path style="fill-rule:nonzero;fill:rgb(100%,100%,0%);fill-opacity:1;stroke-width:0.5;stroke-linecap:butt;stroke-linejoin:miter;stroke:rgb(0%,0%,0%);stroke-opacity:1;stroke-miterlimit:4;" d="M 191.9795 154.00825 C 192.057625 150.727 194.245125 149.7895 194.245125 149.7895 C 194.245125 149.7895 196.588875 150.727 196.667 154.00825 L 191.9795 154.00825 M 186.19825 145.023875 L 202.44825 145.023875 C 202.76075 145.023875 203.07325 145.336375 203.07325 145.727 C 203.07325 146.117625 202.76075 146.430125 202.44825 146.430125 L 186.19825 146.430125 C 185.88575 146.430125 185.57325 146.117625 185.57325 145.727 C 185.57325 145.336375 185.88575 145.023875 186.19825 145.023875 Z M 186.588875 146.50825 L 202.057625 146.50825 C 202.44825 146.50825 202.682625 146.82075 202.682625 147.211375 C 202.682625 147.523875 202.44825 147.9145 202.057625 147.9145 L 186.588875 147.9145 C 186.19825 147.9145 185.963875 147.523875 185.963875 147.211375 C 185.963875 146.82075 186.19825 146.50825 186.588875 146.50825 Z M 191.588875 135.88325 L 192.76075 135.88325 L 192.76075 136.742625 L 193.69825 136.742625 L 193.69825 135.88325 L 194.94825 135.88325 L 194.94825 136.742625 L 195.807625 136.742625 L 195.807625 135.88325 L 197.13575 135.88325 L 197.13575 137.836375 C 197.13575 138.227 196.82325 138.38325 196.588875 138.38325 L 192.13575 138.38325 C 191.82325 138.38325 191.588875 138.148875 191.588875 137.836375 Z M 196.19825 138.5395 L 196.432625 145.023875 L 192.13575 145.023875 L 192.44825 138.5395 L 196.19825 138.5395 " transform="matrix(-0.05,0,0,0.05,23.9896,2.3074)"/>
<path style="fill-rule:nonzero;fill:rgb(100%,100%,0%);fill-opacity:1;stroke-width:0.5;stroke-linecap:butt;stroke-linejoin:miter;stroke:rgb(0%,0%,0%);stroke-opacity:1;stroke-miterlimit:4;" d="M 190.963875 141.586375 L 191.042 145.023875 L 186.9795 145.023875 L 187.057625 141.586375 Z M 190.963875 141.586375 " transform="matrix(-0.05,0,0,0.05,23.9896,2.3074)"/>
<path style="fill-rule:nonzero;fill:rgb(100%,100%,0%);fill-opacity:1;stroke-width:0.5;stroke-linecap:butt;stroke-linejoin:miter;stroke:rgb(0%,0%,0%);stroke-opacity:1;stroke-miterlimit:4;" d="M 190.90175 141.586375 L 191.058 145.023875 L 186.917375 145.023875 L 187.073625 141.586375 L 190.979875 141.586375 Z M 190.90175 141.586375 " transform="matrix(-0.05,0,0,0.05,23.45915,2.3074)"/>
<path style="fill-rule:nonzero;fill:rgb(100%,100%,0%);fill-opacity:1;stroke-width:0.5;stroke-linecap:butt;stroke-linejoin:miter;stroke:rgb(0%,0%,0%);stroke-opacity:1;stroke-miterlimit:4;" d="M 186.276375 139.00825 L 187.526375 139.00825 L 187.526375 139.94575 L 188.38575 139.94575 L 188.38575 139.00825 L 189.63575 139.00825 L 189.63575 139.94575 L 190.495125 139.94575 L 190.495125 139.00825 L 191.745125 139.00825 L 191.745125 141.0395 C 191.745125 141.352 191.432625 141.586375 191.19825 141.586375 L 186.82325 141.586375 C 186.588875 141.586375 186.276375 141.352 186.276375 141.0395 Z M 186.276375 139.00825 " transform="matrix(-0.05,0,0,0.05,23.9896,2.3074)"/>
<path style="fill-rule:nonzero;fill:rgb(100%,100%,0%);fill-opacity:1;stroke-width:0.5;stroke-linecap:butt;stroke-linejoin:miter;stroke:rgb(0%,0%,0%);stroke-opacity:1;stroke-miterlimit:4;" d="M 186.292375 139.00825 L 187.46425 139.00825 L 187.46425 139.94575 L 188.40175 139.94575 L 188.40175 139.00825 L 189.573625 139.00825 L 189.573625 139.94575 L 190.511125 139.94575 L 190.511125 139.00825 L 191.683 139.00825 L 191.683 141.0395 C 191.683 141.352 191.448625 141.586375 191.21425 141.586375 L 186.83925 141.586375 C 186.604875 141.586375 186.292375 141.352 186.292375 141.0395 Z M 186.292375 139.00825 " transform="matrix(-0.05,0,0,0.05,23.45915,2.3074)"/>
<path style=" stroke:none;fill-rule:nonzero;fill:rgb(0%,0%,0%);fill-opacity:1;" d="M 14.292969 9.339844 C 14.296875 9.304688 14.25 9.304688 14.25 9.339844 L 14.25 9.414062 L 14.292969 9.414062 L 14.292969 9.339844 "/>
<path style=" stroke:none;fill-rule:nonzero;fill:rgb(0%,0%,0%);fill-opacity:1;" d="M 14.5625 9.449219 C 14.5625 9.417969 14.519531 9.417969 14.519531 9.449219 L 14.519531 9.507812 L 14.5625 9.507812 L 14.5625 9.449219 "/>
<path style=" stroke:none;fill-rule:nonzero;fill:rgb(0%,0%,0%);fill-opacity:1;" d="M 14.027344 9.449219 C 14.027344 9.417969 13.988281 9.417969 13.988281 9.449219 L 13.988281 9.507812 L 14.027344 9.507812 L 14.027344 9.449219 "/>
<path style=" stroke:none;fill-rule:nonzero;fill:rgb(100%,100%,0%);fill-opacity:1;" d="M 13.578125 12.441406 C 13.769531 12.242188 13.675781 12.054688 13.675781 12.054688 C 13.675781 12.050781 13.476562 11.953125 13.28125 12.148438 L 13.578125 12.441406 "/>
<path style="fill-rule:nonzero;fill:rgb(100%,100%,0%);fill-opacity:1;stroke-width:0.5;stroke-linecap:butt;stroke-linejoin:miter;stroke:rgb(0%,0%,0%);stroke-opacity:1;stroke-miterlimit:4;" d="M 186.858485 147.689453 L 186.117937 154.039794 L 190.26131 153.999159 C 190.279617 148.806376 194.260184 147.936521 194.370669 147.93691 C 194.481154 147.9373 198.288788 149.110828 198.437181 154.027984 L 202.635602 154.042786 L 201.829363 147.686991 Z M 185.84153 154.094063 L 202.801134 154.098612 C 203.188025 154.044733 203.462874 154.432404 203.461316 154.874343 C 203.40471 155.260845 203.127135 155.646567 202.795681 155.645399 L 185.836077 155.640849 C 185.504623 155.639681 185.229774 155.25201 185.175895 154.865119 C 185.177453 154.42318 185.510076 154.092894 185.84153 154.094063 Z M 185.84153 154.094063 " transform="matrix(-0.0352305,-0.0354798,-0.0354798,0.0352305,25.756694,13.746839)"/>
<path style="fill-rule:nonzero;fill:rgb(100%,100%,0%);fill-opacity:1;stroke-width:0.5;stroke-linecap:butt;stroke-linejoin:miter;stroke:rgb(0%,0%,0%);stroke-opacity:1;stroke-miterlimit:4;" d="M 192.029066 154.005391 C 192.040751 150.690849 194.253563 149.814762 194.309 149.759714 C 194.309 149.759714 196.625674 150.762257 196.669425 154.021751 L 192.029066 154.005391 M 186.204925 145.035482 L 202.446183 145.092742 C 202.833075 145.038863 203.052876 145.371096 203.106755 145.757988 C 203.050149 146.14449 202.828011 146.475165 202.441509 146.418559 L 186.199862 146.471784 C 185.868407 146.470615 185.538122 146.137993 185.594727 145.751491 C 185.540848 145.364599 185.873471 145.034314 186.204925 145.035482 Z M 186.531316 146.472952 L 202.054618 146.472438 C 202.386072 146.473607 202.716358 146.806229 202.659752 147.192731 C 202.713631 147.579623 202.436445 147.854861 202.104991 147.853692 L 186.526252 147.909254 C 186.250235 147.853038 185.974997 147.575852 185.921118 147.188961 C 185.977724 146.802459 186.199862 146.471784 186.531316 146.472952 Z M 191.540524 135.883945 L 192.755856 135.88823 L 192.808177 136.71706 L 193.692055 136.720177 L 193.695171 135.836299 L 194.965551 135.89602 L 194.962435 136.779898 L 195.846313 136.783015 L 195.849429 135.899137 L 197.120198 135.848374 L 197.113187 137.837099 C 197.112018 138.168553 196.89027 138.388744 196.558815 138.387575 L 192.139426 138.371994 C 191.863019 138.426263 191.587781 138.149077 191.533512 137.872671 Z M 196.171535 138.551939 L 196.424959 145.016271 L 192.116054 145.001079 L 192.415053 138.538695 L 196.171535 138.551939 " transform="matrix(-0.0352305,-0.0354798,-0.0354798,0.0352305,25.756694,13.746839)"/>
<path style="fill-rule:nonzero;fill:rgb(100%,100%,0%);fill-opacity:1;stroke-width:0.5;stroke-linecap:butt;stroke-linejoin:miter;stroke:rgb(0%,0%,0%);stroke-opacity:1;stroke-miterlimit:4;" d="M 190.912797 141.571767 L 191.066254 145.052621 L 186.978319 145.038209 L 187.045831 141.558134 Z M 190.912797 141.571767 " transform="matrix(-0.0352305,-0.0354798,-0.0354798,0.0352305,25.756694,13.746839)"/>
<path style="fill-rule:nonzero;fill:rgb(100%,100%,0%);fill-opacity:1;stroke-width:0.5;stroke-linecap:butt;stroke-linejoin:miter;stroke:rgb(0%,0%,0%);stroke-opacity:1;stroke-miterlimit:4;" d="M 190.96577 141.554114 L 191.119227 145.034968 L 186.920807 145.020166 L 187.043367 141.595528 Z M 190.96577 141.554114 " transform="matrix(-0.0352305,-0.0354798,-0.0354798,0.0352305,25.382934,13.370434)"/>
<path style="fill-rule:nonzero;fill:rgb(100%,100%,0%);fill-opacity:1;stroke-width:0.5;stroke-linecap:butt;stroke-linejoin:miter;stroke:rgb(0%,0%,0%);stroke-opacity:1;stroke-miterlimit:4;" d="M 186.281397 139.014258 L 187.496729 139.018543 L 187.493613 139.902421 L 188.377491 139.905537 L 188.380607 139.021659 L 189.595939 139.025944 L 189.592823 139.909822 L 190.476701 139.912938 L 190.479817 139.02906 L 191.695149 139.033345 L 191.688138 141.02207 C 191.686969 141.353525 191.465221 141.573715 191.189204 141.517499 L 186.824862 141.557355 C 186.603892 141.556576 186.273217 141.334438 186.274385 141.002984 Z M 186.281397 139.014258 " transform="matrix(-0.0352305,-0.0354798,-0.0354798,0.0352305,25.756694,13.746839)"/>
<path style="fill-rule:nonzero;fill:rgb(100%,100%,0%);fill-opacity:1;stroke-width:0.5;stroke-linecap:butt;stroke-linejoin:miter;stroke:rgb(0%,0%,0%);stroke-opacity:1;stroke-miterlimit:4;" d="M 186.278933 139.051652 L 187.494265 139.055937 L 187.491149 139.939815 L 188.375027 139.942931 L 188.378143 139.059053 L 189.593475 139.063338 L 189.590359 139.947216 L 190.474237 139.950332 L 190.477353 139.066454 L 191.748122 139.015691 L 191.685674 141.059464 C 191.739942 141.335871 191.518194 141.556062 191.18674 141.554893 L 186.877834 141.539702 C 186.54638 141.538533 186.32619 141.316784 186.271921 141.040378 Z M 186.278933 139.051652 " transform="matrix(-0.0352305,-0.0354798,-0.0354798,0.0352305,25.382934,13.370434)"/>
<path style=" stroke:none;fill-rule:nonzero;fill:rgb(0%,0%,0%);fill-opacity:1;" d="M 13.9375 11.820312 C 13.960938 11.800781 13.929688 11.769531 13.90625 11.789062 L 13.851562 11.84375 L 13.882812 11.875 L 13.9375 11.820312 "/>
<path style=" stroke:none;fill-rule:nonzero;fill:rgb(0%,0%,0%);fill-opacity:1;" d="M 14.046875 12.089844 C 14.066406 12.066406 14.039062 12.039062 14.015625 12.058594 L 13.972656 12.101562 L 14.003906 12.128906 L 14.046875 12.089844 "/>
<path style=" stroke:none;fill-rule:nonzero;fill:rgb(0%,0%,0%);fill-opacity:1;" d="M 13.671875 11.710938 C 13.691406 11.691406 13.664062 11.660156 13.640625 11.683594 L 13.597656 11.722656 L 13.628906 11.753906 L 13.671875 11.710938 "/>
<path style=" stroke:none;fill-rule:nonzero;fill:rgb(0%,20%,60%);fill-opacity:1;" d="M 11.632812 10.113281 C 11.632812 10.222656 11.675781 10.324219 11.742188 10.394531 C 11.8125 10.46875 11.90625 10.515625 12.007812 10.515625 C 12.109375 10.515625 12.203125 10.46875 12.273438 10.398438 C 12.339844 10.324219 12.382812 10.222656 12.382812 10.113281 L 12.382812 9.574219 L 11.632812 9.574219 L 11.632812 10.113281 "/>
<path style=" stroke:none;fill-rule:nonzero;fill:rgb(100%,100%,100%);fill-opacity:1;" d="M 11.878906 9.777344 C 11.878906 9.820312 11.84375 9.851562 11.804688 9.851562 C 11.761719 9.851562 11.730469 9.820312 11.730469 9.777344 C 11.730469 9.738281 11.761719 9.703125 11.804688 9.703125 C 11.84375 9.703125 11.878906 9.738281 11.878906 9.777344 Z M 11.878906 9.777344 "/>
<path style=" stroke:none;fill-rule:nonzero;fill:rgb(100%,100%,100%);fill-opacity:1;" d="M 12.292969 9.777344 C 12.292969 9.820312 12.261719 9.851562 12.21875 9.851562 C 12.179688 9.851562 12.144531 9.820312 12.144531 9.777344 C 12.144531 9.738281 12.179688 9.703125 12.21875 9.703125 C 12.261719 9.703125 12.292969 9.738281 12.292969 9.777344 Z M 12.292969 9.777344 "/>
<path style=" stroke:none;fill-rule:nonzero;fill:rgb(100%,100%,100%);fill-opacity:1;" d="M 12.085938 9.976562 C 12.085938 10.019531 12.050781 10.050781 12.011719 10.050781 C 11.96875 10.050781 11.9375 10.019531 11.9375 9.976562 C 11.9375 9.9375 11.96875 9.902344 12.011719 9.902344 C 12.050781 9.902344 12.085938 9.9375 12.085938 9.976562 Z M 12.085938 9.976562 "/>
<path style=" stroke:none;fill-rule:nonzero;fill:rgb(100%,100%,100%);fill-opacity:1;" d="M 11.878906 10.1875 C 11.878906 10.226562 11.84375 10.261719 11.804688 10.261719 C 11.761719 10.261719 11.730469 10.226562 11.730469 10.1875 C 11.730469 10.144531 11.761719 10.113281 11.804688 10.113281 C 11.84375 10.113281 11.878906 10.144531 11.878906 10.1875 Z M 11.878906 10.1875 "/>
<path style=" stroke:none;fill-rule:nonzero;fill:rgb(100%,100%,100%);fill-opacity:1;" d="M 12.292969 10.1875 C 12.292969 10.226562 12.261719 10.261719 12.21875 10.261719 C 12.179688 10.261719 12.144531 10.226562 12.144531 10.1875 C 12.144531 10.144531 12.179688 10.113281 12.21875 10.113281 C 12.261719 10.113281 12.292969 10.144531 12.292969 10.1875 Z M 12.292969 10.1875 "/>
<path style=" stroke:none;fill-rule:nonzero;fill:rgb(0%,20%,60%);fill-opacity:1;" d="M 11.632812 8.8125 C 11.632812 8.921875 11.675781 9.023438 11.742188 9.09375 C 11.8125 9.167969 11.90625 9.214844 12.007812 9.214844 C 12.109375 9.214844 12.203125 9.167969 12.273438 9.097656 C 12.339844 9.023438 12.382812 8.921875 12.382812 8.8125 L 12.382812 8.273438 L 11.632812 8.273438 L 11.632812 8.8125 "/>
<path style=" stroke:none;fill-rule:nonzero;fill:rgb(100%,100%,100%);fill-opacity:1;" d="M 11.878906 8.476562 C 11.878906 8.519531 11.84375 8.550781 11.804688 8.550781 C 11.761719 8.550781 11.730469 8.519531 11.730469 8.476562 C 11.730469 8.4375 11.761719 8.402344 11.804688 8.402344 C 11.84375 8.402344 11.878906 8.4375 11.878906 8.476562 Z M 11.878906 8.476562 "/>
<path style=" stroke:none;fill-rule:nonzero;fill:rgb(100%,100%,100%);fill-opacity:1;" d="M 12.292969 8.476562 C 12.292969 8.519531 12.261719 8.550781 12.21875 8.550781 C 12.179688 8.550781 12.144531 8.519531 12.144531 8.476562 C 12.144531 8.4375 12.179688 8.402344 12.21875 8.402344 C 12.261719 8.402344 12.292969 8.4375 12.292969 8.476562 Z M 12.292969 8.476562 "/>
<path style=" stroke:none;fill-rule:nonzero;fill:rgb(100%,100%,100%);fill-opacity:1;" d="M 12.085938 8.675781 C 12.085938 8.71875 12.050781 8.75 12.011719 8.75 C 11.96875 8.75 11.9375 8.71875 11.9375 8.675781 C 11.9375 8.636719 11.96875 8.601562 12.011719 8.601562 C 12.050781 8.601562 12.085938 8.636719 12.085938 8.675781 Z M 12.085938 8.675781 "/>
<path style=" stroke:none;fill-rule:nonzero;fill:rgb(100%,100%,100%);fill-opacity:1;" d="M 11.878906 8.886719 C 11.878906 8.925781 11.84375 8.960938 11.804688 8.960938 C 11.761719 8.960938 11.730469 8.925781 11.730469 8.886719 C 11.730469 8.84375 11.761719 8.8125 11.804688 8.8125 C 11.84375 8.8125 11.878906 8.84375 11.878906 8.886719 Z M 11.878906 8.886719 "/>
<path style=" stroke:none;fill-rule:nonzero;fill:rgb(100%,100%,100%);fill-opacity:1;" d="M 12.292969 8.886719 C 12.292969 8.925781 12.261719 8.960938 12.21875 8.960938 C 12.179688 8.960938 12.144531 8.925781 12.144531 8.886719 C 12.144531 8.84375 12.179688 8.8125 12.21875 8.8125 C 12.261719 8.8125 12.292969 8.84375 12.292969 8.886719 Z M 12.292969 8.886719 "/>
<path style=" stroke:none;fill-rule:nonzero;fill:rgb(0%,20%,60%);fill-opacity:1;" d="M 10.59375 10.113281 C 10.59375 10.222656 10.632812 10.324219 10.703125 10.394531 C 10.769531 10.46875 10.863281 10.515625 10.96875 10.515625 C 11.070312 10.515625 11.164062 10.46875 11.234375 10.398438 C 11.300781 10.324219 11.34375 10.222656 11.34375 10.113281 L 11.34375 9.574219 L 10.59375 9.574219 L 10.59375 10.113281 "/>
<path style=" stroke:none;fill-rule:nonzero;fill:rgb(100%,100%,100%);fill-opacity:1;" d="M 10.839844 9.777344 C 10.839844 9.820312 10.804688 9.851562 10.765625 9.851562 C 10.722656 9.851562 10.6875 9.820312 10.6875 9.777344 C 10.6875 9.738281 10.722656 9.703125 10.765625 9.703125 C 10.804688 9.703125 10.839844 9.738281 10.839844 9.777344 Z M 10.839844 9.777344 "/>
<path style=" stroke:none;fill-rule:nonzero;fill:rgb(100%,100%,100%);fill-opacity:1;" d="M 11.253906 9.777344 C 11.253906 9.820312 11.21875 9.851562 11.179688 9.851562 C 11.136719 9.851562 11.105469 9.820312 11.105469 9.777344 C 11.105469 9.738281 11.136719 9.703125 11.179688 9.703125 C 11.21875 9.703125 11.253906 9.738281 11.253906 9.777344 Z M 11.253906 9.777344 "/>
<path style=" stroke:none;fill-rule:nonzero;fill:rgb(100%,100%,100%);fill-opacity:1;" d="M 11.046875 9.976562 C 11.046875 10.019531 11.011719 10.050781 10.972656 10.050781 C 10.929688 10.050781 10.898438 10.019531 10.898438 9.976562 C 10.898438 9.9375 10.929688 9.902344 10.972656 9.902344 C 11.011719 9.902344 11.046875 9.9375 11.046875 9.976562 Z M 11.046875 9.976562 "/>
<path style=" stroke:none;fill-rule:nonzero;fill:rgb(100%,100%,100%);fill-opacity:1;" d="M 10.839844 10.1875 C 10.839844 10.226562 10.804688 10.261719 10.765625 10.261719 C 10.722656 10.261719 10.6875 10.226562 10.6875 10.1875 C 10.6875 10.144531 10.722656 10.113281 10.765625 10.113281 C 10.804688 10.113281 10.839844 10.144531 10.839844 10.1875 Z M 10.839844 10.1875 "/>
<path style=" stroke:none;fill-rule:nonzero;fill:rgb(100%,100%,100%);fill-opacity:1;" d="M 11.253906 10.1875 C 11.253906 10.226562 11.21875 10.261719 11.179688 10.261719 C 11.136719 10.261719 11.105469 10.226562 11.105469 10.1875 C 11.105469 10.144531 11.136719 10.113281 11.179688 10.113281 C 11.21875 10.113281 11.253906 10.144531 11.253906 10.1875 Z M 11.253906 10.1875 "/>
<path style=" stroke:none;fill-rule:nonzero;fill:rgb(0%,20%,60%);fill-opacity:1;" d="M 12.667969 10.113281 C 12.667969 10.222656 12.710938 10.324219 12.78125 10.394531 C 12.847656 10.46875 12.941406 10.515625 13.042969 10.515625 C 13.148438 10.515625 13.242188 10.46875 13.308594 10.398438 C 13.378906 10.324219 13.421875 10.222656 13.421875 10.113281 L 13.421875 9.574219 L 12.671875 9.574219 L 12.667969 10.113281 "/>
<path style=" stroke:none;fill-rule:nonzero;fill:rgb(100%,100%,100%);fill-opacity:1;" d="M 12.914062 9.777344 C 12.914062 9.820312 12.882812 9.851562 12.839844 9.851562 C 12.800781 9.851562 12.765625 9.820312 12.765625 9.777344 C 12.765625 9.738281 12.800781 9.703125 12.839844 9.703125 C 12.882812 9.703125 12.914062 9.738281 12.914062 9.777344 Z M 12.914062 9.777344 "/>
<path style=" stroke:none;fill-rule:nonzero;fill:rgb(100%,100%,100%);fill-opacity:1;" d="M 13.332031 9.777344 C 13.332031 9.820312 13.296875 9.851562 13.257812 9.851562 C 13.214844 9.851562 13.183594 9.820312 13.183594 9.777344 C 13.183594 9.738281 13.214844 9.703125 13.257812 9.703125 C 13.296875 9.703125 13.332031 9.738281 13.332031 9.777344 Z M 13.332031 9.777344 "/>
<path style=" stroke:none;fill-rule:nonzero;fill:rgb(100%,100%,100%);fill-opacity:1;" d="M 13.121094 9.976562 C 13.121094 10.019531 13.089844 10.050781 13.046875 10.050781 C 13.007812 10.050781 12.972656 10.019531 12.972656 9.976562 C 12.972656 9.9375 13.007812 9.902344 13.046875 9.902344 C 13.089844 9.902344 13.121094 9.9375 13.121094 9.976562 Z M 13.121094 9.976562 "/>
<path style=" stroke:none;fill-rule:nonzero;fill:rgb(100%,100%,100%);fill-opacity:1;" d="M 12.914062 10.1875 C 12.914062 10.226562 12.882812 10.261719 12.839844 10.261719 C 12.800781 10.261719 12.765625 10.226562 12.765625 10.1875 C 12.765625 10.144531 12.800781 10.113281 12.839844 10.113281 C 12.882812 10.113281 12.914062 10.144531 12.914062 10.1875 Z M 12.914062 10.1875 "/>
<path style=" stroke:none;fill-rule:nonzero;fill:rgb(100%,100%,100%);fill-opacity:1;" d="M 13.332031 10.1875 C 13.332031 10.226562 13.296875 10.261719 13.257812 10.261719 C 13.214844 10.261719 13.183594 10.226562 13.183594 10.1875 C 13.183594 10.144531 13.214844 10.113281 13.257812 10.113281 C 13.296875 10.113281 13.332031 10.144531 13.332031 10.1875 Z M 13.332031 10.1875 "/>
<path style=" stroke:none;fill-rule:nonzero;fill:rgb(0%,20%,60%);fill-opacity:1;" d="M 11.632812 11.402344 C 11.632812 11.511719 11.675781 11.613281 11.742188 11.6875 C 11.8125 11.757812 11.90625 11.804688 12.007812 11.804688 C 12.109375 11.804688 12.203125 11.757812 12.273438 11.6875 C 12.339844 11.613281 12.382812 11.511719 12.382812 11.402344 L 12.382812 10.863281 L 11.632812 10.863281 L 11.632812 11.402344 "/>
<path style=" stroke:none;fill-rule:nonzero;fill:rgb(100%,100%,100%);fill-opacity:1;" d="M 11.878906 11.066406 C 11.878906 11.109375 11.84375 11.140625 11.804688 11.140625 C 11.761719 11.140625 11.730469 11.109375 11.730469 11.066406 C 11.730469 11.027344 11.761719 10.992188 11.804688 10.992188 C 11.84375 10.992188 11.878906 11.027344 11.878906 11.066406 Z M 11.878906 11.066406 "/>
<path style=" stroke:none;fill-rule:nonzero;fill:rgb(100%,100%,100%);fill-opacity:1;" d="M 12.292969 11.066406 C 12.292969 11.109375 12.261719 11.140625 12.21875 11.140625 C 12.179688 11.140625 12.144531 11.109375 12.144531 11.066406 C 12.144531 11.027344 12.179688 10.992188 12.21875 10.992188 C 12.261719 10.992188 12.292969 11.027344 12.292969 11.066406 Z M 12.292969 11.066406 "/>
<path style=" stroke:none;fill-rule:nonzero;fill:rgb(100%,100%,100%);fill-opacity:1;" d="M 12.085938 11.265625 C 12.085938 11.308594 12.050781 11.339844 12.011719 11.339844 C 11.96875 11.339844 11.9375 11.308594 11.9375 11.265625 C 11.9375 11.226562 11.96875 11.191406 12.011719 11.191406 C 12.050781 11.191406 12.085938 11.226562 12.085938 11.265625 Z M 12.085938 11.265625 "/>
<path style=" stroke:none;fill-rule:nonzero;fill:rgb(100%,100%,100%);fill-opacity:1;" d="M 11.878906 11.476562 C 11.878906 11.515625 11.84375 11.550781 11.804688 11.550781 C 11.761719 11.550781 11.730469 11.515625 11.730469 11.476562 C 11.730469 11.433594 11.761719 11.402344 11.804688 11.402344 C 11.84375 11.402344 11.878906 11.433594 11.878906 11.476562 Z M 11.878906 11.476562 "/>
<path style=" stroke:none;fill-rule:nonzero;fill:rgb(100%,100%,100%);fill-opacity:1;" d="M 12.292969 11.476562 C 12.292969 11.515625 12.261719 11.550781 12.21875 11.550781 C 12.179688 11.550781 12.144531 11.515625 12.144531 11.476562 C 12.144531 11.433594 12.179688 11.402344 12.21875 11.402344 C 12.261719 11.402344 12.292969 11.433594 12.292969 11.476562 Z M 12.292969 11.476562 "/>
</g>
</svg>
