<?xml version="1.0" encoding="UTF-8"?>
<svg xmlns="http://www.w3.org/2000/svg" xmlns:xlink="http://www.w3.org/1999/xlink" width="30px" height="20px" viewBox="0 0 30 20" version="1.1">
<g id="surface1">
<rect x="0" y="0" width="30" height="20" style="fill:rgb(0%,20%,60%);fill-opacity:1;stroke:none;"/>
<path style=" stroke:none;fill-rule:nonzero;fill:rgb(100%,80%,0%);fill-opacity:1;" d="M 15 2.222656 L 14.65625 3.277344 L 15.183594 3.449219 Z M 15 2.222656 "/>
<path style=" stroke:none;fill-rule:nonzero;fill:rgb(100%,80%,0%);fill-opacity:1;" d="M 15 2.222656 L 15.34375 3.277344 L 14.816406 3.449219 Z M 15 2.222656 "/>
<path style=" stroke:none;fill-rule:nonzero;fill:rgb(100%,80%,0%);fill-opacity:1;" d="M 16.058594 2.988281 L 14.945312 2.988281 L 14.945312 3.546875 Z M 16.058594 2.988281 "/>
<path style=" stroke:none;fill-rule:nonzero;fill:rgb(100%,80%,0%);fill-opacity:1;" d="M 16.058594 2.988281 L 15.15625 3.644531 L 14.832031 3.195312 Z M 16.058594 2.988281 "/>
<path style=" stroke:none;fill-rule:nonzero;fill:rgb(100%,80%,0%);fill-opacity:1;" d="M 15.652344 4.230469 L 15.308594 3.175781 L 14.78125 3.347656 Z M 15.652344 4.230469 "/>
<path style=" stroke:none;fill-rule:nonzero;fill:rgb(100%,80%,0%);fill-opacity:1;" d="M 15.652344 4.230469 L 14.753906 3.578125 L 15.082031 3.128906 Z M 15.652344 4.230469 "/>
<path style=" stroke:none;fill-rule:nonzero;fill:rgb(100%,80%,0%);fill-opacity:1;" d="M 13.941406 2.988281 L 15.054688 2.988281 L 15.054688 3.546875 Z M 13.941406 2.988281 "/>
<path style=" stroke:none;fill-rule:nonzero;fill:rgb(100%,80%,0%);fill-opacity:1;" d="M 13.941406 2.988281 L 14.84375 3.644531 L 15.167969 3.195312 Z M 13.941406 2.988281 "/>
<path style=" stroke:none;fill-rule:nonzero;fill:rgb(100%,80%,0%);fill-opacity:1;" d="M 14.347656 4.230469 L 14.691406 3.175781 L 15.21875 3.347656 Z M 14.347656 4.230469 "/>
<path style=" stroke:none;fill-rule:nonzero;fill:rgb(100%,80%,0%);fill-opacity:1;" d="M 14.347656 4.230469 L 15.246094 3.578125 L 14.917969 3.128906 Z M 14.347656 4.230469 "/>
<path style=" stroke:none;fill-rule:nonzero;fill:rgb(100%,80%,0%);fill-opacity:1;" d="M 15 15.554688 L 14.65625 16.613281 L 15.183594 16.785156 Z M 15 15.554688 "/>
<path style=" stroke:none;fill-rule:nonzero;fill:rgb(100%,80%,0%);fill-opacity:1;" d="M 15 15.554688 L 15.34375 16.613281 L 14.816406 16.785156 Z M 15 15.554688 "/>
<path style=" stroke:none;fill-rule:nonzero;fill:rgb(100%,80%,0%);fill-opacity:1;" d="M 16.058594 16.324219 L 14.945312 16.324219 L 14.945312 16.878906 Z M 16.058594 16.324219 "/>
<path style=" stroke:none;fill-rule:nonzero;fill:rgb(100%,80%,0%);fill-opacity:1;" d="M 16.058594 16.324219 L 15.15625 16.976562 L 14.832031 16.527344 Z M 16.058594 16.324219 "/>
<path style=" stroke:none;fill-rule:nonzero;fill:rgb(100%,80%,0%);fill-opacity:1;" d="M 15.652344 17.566406 L 15.308594 16.507812 L 14.78125 16.679688 Z M 15.652344 17.566406 "/>
<path style=" stroke:none;fill-rule:nonzero;fill:rgb(100%,80%,0%);fill-opacity:1;" d="M 15.652344 17.566406 L 14.753906 16.914062 L 15.082031 16.464844 Z M 15.652344 17.566406 "/>
<path style=" stroke:none;fill-rule:nonzero;fill:rgb(100%,80%,0%);fill-opacity:1;" d="M 13.941406 16.324219 L 15.054688 16.324219 L 15.054688 16.878906 Z M 13.941406 16.324219 "/>
<path style=" stroke:none;fill-rule:nonzero;fill:rgb(100%,80%,0%);fill-opacity:1;" d="M 13.941406 16.324219 L 14.84375 16.976562 L 15.167969 16.527344 Z M 13.941406 16.324219 "/>
<path style=" stroke:none;fill-rule:nonzero;fill:rgb(100%,80%,0%);fill-opacity:1;" d="M 14.347656 17.566406 L 14.691406 16.507812 L 15.21875 16.679688 Z M 14.347656 17.566406 "/>
<path style=" stroke:none;fill-rule:nonzero;fill:rgb(100%,80%,0%);fill-opacity:1;" d="M 14.347656 17.566406 L 15.246094 16.914062 L 14.917969 16.464844 Z M 14.347656 17.566406 "/>
<path style=" stroke:none;fill-rule:nonzero;fill:rgb(100%,80%,0%);fill-opacity:1;" d="M 8.332031 8.890625 L 7.988281 9.945312 L 8.519531 10.117188 Z M 8.332031 8.890625 "/>
<path style=" stroke:none;fill-rule:nonzero;fill:rgb(100%,80%,0%);fill-opacity:1;" d="M 8.332031 8.890625 L 8.675781 9.945312 L 8.148438 10.117188 Z M 8.332031 8.890625 "/>
<path style=" stroke:none;fill-rule:nonzero;fill:rgb(100%,80%,0%);fill-opacity:1;" d="M 9.390625 9.65625 L 8.277344 9.65625 L 8.277344 10.210938 Z M 9.390625 9.65625 "/>
<path style=" stroke:none;fill-rule:nonzero;fill:rgb(100%,80%,0%);fill-opacity:1;" d="M 9.390625 9.65625 L 8.492188 10.308594 L 8.164062 9.859375 Z M 9.390625 9.65625 "/>
<path style=" stroke:none;fill-rule:nonzero;fill:rgb(100%,80%,0%);fill-opacity:1;" d="M 8.988281 10.898438 L 8.644531 9.84375 L 8.113281 10.015625 Z M 8.988281 10.898438 "/>
<path style=" stroke:none;fill-rule:nonzero;fill:rgb(100%,80%,0%);fill-opacity:1;" d="M 8.988281 10.898438 L 8.085938 10.246094 L 8.414062 9.796875 Z M 8.988281 10.898438 "/>
<path style=" stroke:none;fill-rule:nonzero;fill:rgb(100%,80%,0%);fill-opacity:1;" d="M 7.277344 9.65625 L 8.386719 9.65625 L 8.386719 10.210938 Z M 7.277344 9.65625 "/>
<path style=" stroke:none;fill-rule:nonzero;fill:rgb(100%,80%,0%);fill-opacity:1;" d="M 7.277344 9.65625 L 8.175781 10.308594 L 8.503906 9.859375 Z M 7.277344 9.65625 "/>
<path style=" stroke:none;fill-rule:nonzero;fill:rgb(100%,80%,0%);fill-opacity:1;" d="M 7.679688 10.898438 L 8.023438 9.84375 L 8.550781 10.015625 Z M 7.679688 10.898438 "/>
<path style=" stroke:none;fill-rule:nonzero;fill:rgb(100%,80%,0%);fill-opacity:1;" d="M 7.679688 10.898438 L 8.578125 10.246094 L 8.253906 9.796875 Z M 7.679688 10.898438 "/>
<path style=" stroke:none;fill-rule:nonzero;fill:rgb(100%,80%,0%);fill-opacity:1;" d="M 11.011719 5.125 L 11.914062 4.472656 L 11.585938 4.023438 Z M 11.011719 5.125 "/>
<path style=" stroke:none;fill-rule:nonzero;fill:rgb(100%,80%,0%);fill-opacity:1;" d="M 11.011719 5.125 L 11.355469 4.070312 L 11.886719 4.242188 Z M 11.011719 5.125 "/>
<path style=" stroke:none;fill-rule:nonzero;fill:rgb(100%,80%,0%);fill-opacity:1;" d="M 10.609375 3.882812 L 11.507812 4.539062 L 11.835938 4.089844 Z M 10.609375 3.882812 "/>
<path style=" stroke:none;fill-rule:nonzero;fill:rgb(100%,80%,0%);fill-opacity:1;" d="M 10.609375 3.882812 L 11.722656 3.882812 L 11.722656 4.441406 Z M 10.609375 3.882812 "/>
<path style=" stroke:none;fill-rule:nonzero;fill:rgb(100%,80%,0%);fill-opacity:1;" d="M 11.667969 3.117188 L 11.324219 4.171875 L 11.851562 4.34375 Z M 11.667969 3.117188 "/>
<path style=" stroke:none;fill-rule:nonzero;fill:rgb(100%,80%,0%);fill-opacity:1;" d="M 11.667969 3.117188 L 12.011719 4.171875 L 11.480469 4.34375 Z M 11.667969 3.117188 "/>
<path style=" stroke:none;fill-rule:nonzero;fill:rgb(100%,80%,0%);fill-opacity:1;" d="M 12.320312 5.125 L 11.421875 4.472656 L 11.746094 4.023438 Z M 12.320312 5.125 "/>
<path style=" stroke:none;fill-rule:nonzero;fill:rgb(100%,80%,0%);fill-opacity:1;" d="M 12.320312 5.125 L 11.976562 4.070312 L 11.449219 4.242188 Z M 12.320312 5.125 "/>
<path style=" stroke:none;fill-rule:nonzero;fill:rgb(100%,80%,0%);fill-opacity:1;" d="M 12.722656 3.882812 L 11.824219 4.539062 L 11.496094 4.089844 Z M 12.722656 3.882812 "/>
<path style=" stroke:none;fill-rule:nonzero;fill:rgb(100%,80%,0%);fill-opacity:1;" d="M 12.722656 3.882812 L 11.613281 3.882812 L 11.613281 4.441406 Z M 12.722656 3.882812 "/>
<path style=" stroke:none;fill-rule:nonzero;fill:rgb(100%,80%,0%);fill-opacity:1;" d="M 9.882812 7.566406 L 9.539062 6.507812 L 9.007812 6.679688 Z M 9.882812 7.566406 "/>
<path style=" stroke:none;fill-rule:nonzero;fill:rgb(100%,80%,0%);fill-opacity:1;" d="M 9.882812 7.566406 L 8.980469 6.914062 L 9.308594 6.464844 Z M 9.882812 7.566406 "/>
<path style=" stroke:none;fill-rule:nonzero;fill:rgb(100%,80%,0%);fill-opacity:1;" d="M 8.574219 7.566406 L 9.472656 6.914062 L 9.148438 6.464844 Z M 8.574219 7.566406 "/>
<path style=" stroke:none;fill-rule:nonzero;fill:rgb(100%,80%,0%);fill-opacity:1;" d="M 8.574219 7.566406 L 8.917969 6.507812 L 9.445312 6.679688 Z M 8.574219 7.566406 "/>
<path style=" stroke:none;fill-rule:nonzero;fill:rgb(100%,80%,0%);fill-opacity:1;" d="M 8.171875 6.324219 L 9.070312 6.976562 L 9.398438 6.527344 Z M 8.171875 6.324219 "/>
<path style=" stroke:none;fill-rule:nonzero;fill:rgb(100%,80%,0%);fill-opacity:1;" d="M 8.171875 6.324219 L 9.28125 6.324219 L 9.28125 6.878906 Z M 8.171875 6.324219 "/>
<path style=" stroke:none;fill-rule:nonzero;fill:rgb(100%,80%,0%);fill-opacity:1;" d="M 10.285156 6.324219 L 9.386719 6.976562 L 9.058594 6.527344 Z M 10.285156 6.324219 "/>
<path style=" stroke:none;fill-rule:nonzero;fill:rgb(100%,80%,0%);fill-opacity:1;" d="M 10.285156 6.324219 L 9.171875 6.324219 L 9.171875 6.878906 Z M 10.285156 6.324219 "/>
<path style=" stroke:none;fill-rule:nonzero;fill:rgb(100%,80%,0%);fill-opacity:1;" d="M 9.226562 5.554688 L 9.570312 6.613281 L 9.042969 6.785156 Z M 9.226562 5.554688 "/>
<path style=" stroke:none;fill-rule:nonzero;fill:rgb(100%,80%,0%);fill-opacity:1;" d="M 9.226562 5.554688 L 8.882812 6.613281 L 9.414062 6.785156 Z M 9.226562 5.554688 "/>
<path style=" stroke:none;fill-rule:nonzero;fill:rgb(100%,80%,0%);fill-opacity:1;" d="M 10.28125 12.992188 L 9.171875 12.992188 L 9.171875 13.546875 Z M 10.28125 12.992188 "/>
<path style=" stroke:none;fill-rule:nonzero;fill:rgb(100%,80%,0%);fill-opacity:1;" d="M 10.28125 12.992188 L 9.382812 13.644531 L 9.058594 13.195312 Z M 10.28125 12.992188 "/>
<path style=" stroke:none;fill-rule:nonzero;fill:rgb(100%,80%,0%);fill-opacity:1;" d="M 9.878906 14.234375 L 9.535156 13.175781 L 9.007812 13.347656 Z M 9.878906 14.234375 "/>
<path style=" stroke:none;fill-rule:nonzero;fill:rgb(100%,80%,0%);fill-opacity:1;" d="M 9.878906 14.234375 L 8.980469 13.578125 L 9.308594 13.128906 Z M 9.878906 14.234375 "/>
<path style=" stroke:none;fill-rule:nonzero;fill:rgb(100%,80%,0%);fill-opacity:1;" d="M 8.574219 14.234375 L 9.472656 13.578125 L 9.144531 13.128906 Z M 8.574219 14.234375 "/>
<path style=" stroke:none;fill-rule:nonzero;fill:rgb(100%,80%,0%);fill-opacity:1;" d="M 8.574219 14.234375 L 8.917969 13.175781 L 9.445312 13.347656 Z M 8.574219 14.234375 "/>
<path style=" stroke:none;fill-rule:nonzero;fill:rgb(100%,80%,0%);fill-opacity:1;" d="M 9.226562 12.222656 L 9.570312 13.277344 L 9.042969 13.449219 Z M 9.226562 12.222656 "/>
<path style=" stroke:none;fill-rule:nonzero;fill:rgb(100%,80%,0%);fill-opacity:1;" d="M 9.226562 12.222656 L 8.882812 13.277344 L 9.410156 13.449219 Z M 9.226562 12.222656 "/>
<path style=" stroke:none;fill-rule:nonzero;fill:rgb(100%,80%,0%);fill-opacity:1;" d="M 8.167969 12.992188 L 9.28125 12.992188 L 9.28125 13.546875 Z M 8.167969 12.992188 "/>
<path style=" stroke:none;fill-rule:nonzero;fill:rgb(100%,80%,0%);fill-opacity:1;" d="M 8.167969 12.992188 L 9.066406 13.644531 L 9.394531 13.195312 Z M 8.167969 12.992188 "/>
<path style=" stroke:none;fill-rule:nonzero;fill:rgb(100%,80%,0%);fill-opacity:1;" d="M 12.722656 15.429688 L 11.613281 15.429688 L 11.613281 15.984375 Z M 12.722656 15.429688 "/>
<path style=" stroke:none;fill-rule:nonzero;fill:rgb(100%,80%,0%);fill-opacity:1;" d="M 12.722656 15.429688 L 11.824219 16.082031 L 11.5 15.632812 Z M 12.722656 15.429688 "/>
<path style=" stroke:none;fill-rule:nonzero;fill:rgb(100%,80%,0%);fill-opacity:1;" d="M 12.320312 16.671875 L 11.976562 15.617188 L 11.449219 15.789062 Z M 12.320312 16.671875 "/>
<path style=" stroke:none;fill-rule:nonzero;fill:rgb(100%,80%,0%);fill-opacity:1;" d="M 12.320312 16.671875 L 11.421875 16.019531 L 11.746094 15.570312 Z M 12.320312 16.671875 "/>
<path style=" stroke:none;fill-rule:nonzero;fill:rgb(100%,80%,0%);fill-opacity:1;" d="M 11.015625 16.671875 L 11.914062 16.019531 L 11.585938 15.570312 Z M 11.015625 16.671875 "/>
<path style=" stroke:none;fill-rule:nonzero;fill:rgb(100%,80%,0%);fill-opacity:1;" d="M 11.015625 16.671875 L 11.355469 15.617188 L 11.886719 15.789062 Z M 11.015625 16.671875 "/>
<path style=" stroke:none;fill-rule:nonzero;fill:rgb(100%,80%,0%);fill-opacity:1;" d="M 11.667969 14.664062 L 12.011719 15.71875 L 11.480469 15.890625 Z M 11.667969 14.664062 "/>
<path style=" stroke:none;fill-rule:nonzero;fill:rgb(100%,80%,0%);fill-opacity:1;" d="M 11.667969 14.664062 L 11.324219 15.71875 L 11.851562 15.890625 Z M 11.667969 14.664062 "/>
<path style=" stroke:none;fill-rule:nonzero;fill:rgb(100%,80%,0%);fill-opacity:1;" d="M 10.609375 15.429688 L 11.722656 15.429688 L 11.722656 15.984375 Z M 10.609375 15.429688 "/>
<path style=" stroke:none;fill-rule:nonzero;fill:rgb(100%,80%,0%);fill-opacity:1;" d="M 10.609375 15.429688 L 11.507812 16.082031 L 11.835938 15.632812 Z M 10.609375 15.429688 "/>
<path style=" stroke:none;fill-rule:nonzero;fill:rgb(100%,80%,0%);fill-opacity:1;" d="M 21.667969 8.890625 L 22.011719 9.945312 L 21.480469 10.117188 Z M 21.667969 8.890625 "/>
<path style=" stroke:none;fill-rule:nonzero;fill:rgb(100%,80%,0%);fill-opacity:1;" d="M 21.667969 8.890625 L 21.324219 9.945312 L 21.851562 10.117188 Z M 21.667969 8.890625 "/>
<path style=" stroke:none;fill-rule:nonzero;fill:rgb(100%,80%,0%);fill-opacity:1;" d="M 20.609375 9.65625 L 21.722656 9.65625 L 21.722656 10.210938 Z M 20.609375 9.65625 "/>
<path style=" stroke:none;fill-rule:nonzero;fill:rgb(100%,80%,0%);fill-opacity:1;" d="M 20.609375 9.65625 L 21.507812 10.308594 L 21.835938 9.859375 Z M 20.609375 9.65625 "/>
<path style=" stroke:none;fill-rule:nonzero;fill:rgb(100%,80%,0%);fill-opacity:1;" d="M 21.011719 10.898438 L 21.355469 9.84375 L 21.886719 10.015625 Z M 21.011719 10.898438 "/>
<path style=" stroke:none;fill-rule:nonzero;fill:rgb(100%,80%,0%);fill-opacity:1;" d="M 21.011719 10.898438 L 21.914062 10.246094 L 21.585938 9.796875 Z M 21.011719 10.898438 "/>
<path style=" stroke:none;fill-rule:nonzero;fill:rgb(100%,80%,0%);fill-opacity:1;" d="M 22.722656 9.65625 L 21.613281 9.65625 L 21.613281 10.210938 Z M 22.722656 9.65625 "/>
<path style=" stroke:none;fill-rule:nonzero;fill:rgb(100%,80%,0%);fill-opacity:1;" d="M 22.722656 9.65625 L 21.824219 10.308594 L 21.496094 9.859375 Z M 22.722656 9.65625 "/>
<path style=" stroke:none;fill-rule:nonzero;fill:rgb(100%,80%,0%);fill-opacity:1;" d="M 22.320312 10.898438 L 21.976562 9.84375 L 21.449219 10.015625 Z M 22.320312 10.898438 "/>
<path style=" stroke:none;fill-rule:nonzero;fill:rgb(100%,80%,0%);fill-opacity:1;" d="M 22.320312 10.898438 L 21.421875 10.246094 L 21.746094 9.796875 Z M 22.320312 10.898438 "/>
<path style=" stroke:none;fill-rule:nonzero;fill:rgb(100%,80%,0%);fill-opacity:1;" d="M 18.988281 5.125 L 18.085938 4.472656 L 18.414062 4.023438 Z M 18.988281 5.125 "/>
<path style=" stroke:none;fill-rule:nonzero;fill:rgb(100%,80%,0%);fill-opacity:1;" d="M 18.988281 5.125 L 18.644531 4.070312 L 18.113281 4.242188 Z M 18.988281 5.125 "/>
<path style=" stroke:none;fill-rule:nonzero;fill:rgb(100%,80%,0%);fill-opacity:1;" d="M 19.390625 3.882812 L 18.492188 4.539062 L 18.164062 4.089844 Z M 19.390625 3.882812 "/>
<path style=" stroke:none;fill-rule:nonzero;fill:rgb(100%,80%,0%);fill-opacity:1;" d="M 19.390625 3.882812 L 18.277344 3.882812 L 18.277344 4.441406 Z M 19.390625 3.882812 "/>
<path style=" stroke:none;fill-rule:nonzero;fill:rgb(100%,80%,0%);fill-opacity:1;" d="M 18.332031 3.117188 L 18.675781 4.171875 L 18.148438 4.34375 Z M 18.332031 3.117188 "/>
<path style=" stroke:none;fill-rule:nonzero;fill:rgb(100%,80%,0%);fill-opacity:1;" d="M 18.332031 3.117188 L 17.988281 4.171875 L 18.519531 4.34375 Z M 18.332031 3.117188 "/>
<path style=" stroke:none;fill-rule:nonzero;fill:rgb(100%,80%,0%);fill-opacity:1;" d="M 17.679688 5.125 L 18.578125 4.472656 L 18.253906 4.023438 Z M 17.679688 5.125 "/>
<path style=" stroke:none;fill-rule:nonzero;fill:rgb(100%,80%,0%);fill-opacity:1;" d="M 17.679688 5.125 L 18.023438 4.070312 L 18.550781 4.242188 Z M 17.679688 5.125 "/>
<path style=" stroke:none;fill-rule:nonzero;fill:rgb(100%,80%,0%);fill-opacity:1;" d="M 17.277344 3.882812 L 18.175781 4.539062 L 18.503906 4.089844 Z M 17.277344 3.882812 "/>
<path style=" stroke:none;fill-rule:nonzero;fill:rgb(100%,80%,0%);fill-opacity:1;" d="M 17.277344 3.882812 L 18.386719 3.882812 L 18.386719 4.441406 Z M 17.277344 3.882812 "/>
<path style=" stroke:none;fill-rule:nonzero;fill:rgb(100%,80%,0%);fill-opacity:1;" d="M 20.117188 7.566406 L 20.460938 6.507812 L 20.992188 6.679688 Z M 20.117188 7.566406 "/>
<path style=" stroke:none;fill-rule:nonzero;fill:rgb(100%,80%,0%);fill-opacity:1;" d="M 20.117188 7.566406 L 21.019531 6.914062 L 20.691406 6.464844 Z M 20.117188 7.566406 "/>
<path style=" stroke:none;fill-rule:nonzero;fill:rgb(100%,80%,0%);fill-opacity:1;" d="M 21.425781 7.566406 L 20.527344 6.914062 L 20.851562 6.464844 Z M 21.425781 7.566406 "/>
<path style=" stroke:none;fill-rule:nonzero;fill:rgb(100%,80%,0%);fill-opacity:1;" d="M 21.425781 7.566406 L 21.082031 6.507812 L 20.554688 6.679688 Z M 21.425781 7.566406 "/>
<path style=" stroke:none;fill-rule:nonzero;fill:rgb(100%,80%,0%);fill-opacity:1;" d="M 21.828125 6.324219 L 20.929688 6.976562 L 20.601562 6.527344 Z M 21.828125 6.324219 "/>
<path style=" stroke:none;fill-rule:nonzero;fill:rgb(100%,80%,0%);fill-opacity:1;" d="M 21.828125 6.324219 L 20.71875 6.324219 L 20.71875 6.878906 Z M 21.828125 6.324219 "/>
<path style=" stroke:none;fill-rule:nonzero;fill:rgb(100%,80%,0%);fill-opacity:1;" d="M 19.714844 6.324219 L 20.613281 6.976562 L 20.941406 6.527344 Z M 19.714844 6.324219 "/>
<path style=" stroke:none;fill-rule:nonzero;fill:rgb(100%,80%,0%);fill-opacity:1;" d="M 19.714844 6.324219 L 20.828125 6.324219 L 20.828125 6.878906 Z M 19.714844 6.324219 "/>
<path style=" stroke:none;fill-rule:nonzero;fill:rgb(100%,80%,0%);fill-opacity:1;" d="M 20.773438 5.554688 L 20.429688 6.613281 L 20.957031 6.785156 Z M 20.773438 5.554688 "/>
<path style=" stroke:none;fill-rule:nonzero;fill:rgb(100%,80%,0%);fill-opacity:1;" d="M 20.773438 5.554688 L 21.117188 6.613281 L 20.585938 6.785156 Z M 20.773438 5.554688 "/>
<path style=" stroke:none;fill-rule:nonzero;fill:rgb(100%,80%,0%);fill-opacity:1;" d="M 19.71875 12.992188 L 20.828125 12.992188 L 20.828125 13.546875 Z M 19.71875 12.992188 "/>
<path style=" stroke:none;fill-rule:nonzero;fill:rgb(100%,80%,0%);fill-opacity:1;" d="M 19.71875 12.992188 L 20.617188 13.644531 L 20.941406 13.195312 Z M 19.71875 12.992188 "/>
<path style=" stroke:none;fill-rule:nonzero;fill:rgb(100%,80%,0%);fill-opacity:1;" d="M 20.121094 14.234375 L 20.464844 13.175781 L 20.992188 13.347656 Z M 20.121094 14.234375 "/>
<path style=" stroke:none;fill-rule:nonzero;fill:rgb(100%,80%,0%);fill-opacity:1;" d="M 20.121094 14.234375 L 21.019531 13.578125 L 20.691406 13.128906 Z M 20.121094 14.234375 "/>
<path style=" stroke:none;fill-rule:nonzero;fill:rgb(100%,80%,0%);fill-opacity:1;" d="M 21.425781 14.234375 L 20.527344 13.578125 L 20.855469 13.128906 Z M 21.425781 14.234375 "/>
<path style=" stroke:none;fill-rule:nonzero;fill:rgb(100%,80%,0%);fill-opacity:1;" d="M 21.425781 14.234375 L 21.082031 13.175781 L 20.554688 13.347656 Z M 21.425781 14.234375 "/>
<path style=" stroke:none;fill-rule:nonzero;fill:rgb(100%,80%,0%);fill-opacity:1;" d="M 20.773438 12.222656 L 20.429688 13.277344 L 20.957031 13.449219 Z M 20.773438 12.222656 "/>
<path style=" stroke:none;fill-rule:nonzero;fill:rgb(100%,80%,0%);fill-opacity:1;" d="M 20.773438 12.222656 L 21.117188 13.277344 L 20.589844 13.449219 Z M 20.773438 12.222656 "/>
<path style=" stroke:none;fill-rule:nonzero;fill:rgb(100%,80%,0%);fill-opacity:1;" d="M 21.832031 12.992188 L 20.71875 12.992188 L 20.71875 13.546875 Z M 21.832031 12.992188 "/>
<path style=" stroke:none;fill-rule:nonzero;fill:rgb(100%,80%,0%);fill-opacity:1;" d="M 21.832031 12.992188 L 20.933594 13.644531 L 20.605469 13.195312 Z M 21.832031 12.992188 "/>
<path style=" stroke:none;fill-rule:nonzero;fill:rgb(100%,80%,0%);fill-opacity:1;" d="M 17.277344 15.429688 L 18.386719 15.429688 L 18.386719 15.984375 Z M 17.277344 15.429688 "/>
<path style=" stroke:none;fill-rule:nonzero;fill:rgb(100%,80%,0%);fill-opacity:1;" d="M 17.277344 15.429688 L 18.175781 16.082031 L 18.5 15.632812 Z M 17.277344 15.429688 "/>
<path style=" stroke:none;fill-rule:nonzero;fill:rgb(100%,80%,0%);fill-opacity:1;" d="M 17.679688 16.671875 L 18.023438 15.617188 L 18.550781 15.789062 Z M 17.679688 16.671875 "/>
<path style=" stroke:none;fill-rule:nonzero;fill:rgb(100%,80%,0%);fill-opacity:1;" d="M 17.679688 16.671875 L 18.578125 16.019531 L 18.253906 15.570312 Z M 17.679688 16.671875 "/>
<path style=" stroke:none;fill-rule:nonzero;fill:rgb(100%,80%,0%);fill-opacity:1;" d="M 18.984375 16.671875 L 18.085938 16.019531 L 18.414062 15.570312 Z M 18.984375 16.671875 "/>
<path style=" stroke:none;fill-rule:nonzero;fill:rgb(100%,80%,0%);fill-opacity:1;" d="M 18.984375 16.671875 L 18.644531 15.617188 L 18.113281 15.789062 Z M 18.984375 16.671875 "/>
<path style=" stroke:none;fill-rule:nonzero;fill:rgb(100%,80%,0%);fill-opacity:1;" d="M 18.332031 14.664062 L 17.988281 15.71875 L 18.519531 15.890625 Z M 18.332031 14.664062 "/>
<path style=" stroke:none;fill-rule:nonzero;fill:rgb(100%,80%,0%);fill-opacity:1;" d="M 18.332031 14.664062 L 18.675781 15.71875 L 18.148438 15.890625 Z M 18.332031 14.664062 "/>
<path style=" stroke:none;fill-rule:nonzero;fill:rgb(100%,80%,0%);fill-opacity:1;" d="M 19.390625 15.429688 L 18.277344 15.429688 L 18.277344 15.984375 Z M 19.390625 15.429688 "/>
<path style=" stroke:none;fill-rule:nonzero;fill:rgb(100%,80%,0%);fill-opacity:1;" d="M 19.390625 15.429688 L 18.492188 16.082031 L 18.164062 15.632812 Z M 19.390625 15.429688 "/>
</g>
</svg>
