<svg width="30" height="20" viewBox="0 0 30 20" fill="none" xmlns="http://www.w3.org/2000/svg">
<g clip-path="url(#clip0_203_1007)">
<path d="M30.0006 0H0V20.0004H30.0006V0Z" fill="#000066"/>
<path d="M0 0V2.23611L26.6465 20.0005H30.0006V17.7644L3.35407 6.6668e-05L0 0ZM30.0006 0V2.23604L3.35407 20.0004H0V17.7644L26.6465 0H30.0006Z" fill="white"/>
<path d="M12.5003 0V20.0004H17.5004V0H12.5003ZM0 6.6668V13.3336H30.0006V6.6668H0Z" fill="white"/>
<path d="M0 8.00016V12.0002H30.0006V8.00016H0ZM13.5003 0V20.0004H16.5003V0H13.5003Z" fill="#CC0000"/>
<path d="M0 20.0004L10.0002 13.3336H12.2362L2.23604 20.0004H0ZM0 0L10.0002 6.6668H7.76416L0 1.49076L0 0ZM17.7644 6.6668L27.7646 0H30.0006L20.0004 6.6668H17.7644ZM30.0006 20.0004L20.0004 13.3336H22.2364L30.0006 18.5097V20.0004Z" fill="#CC0000"/>
</g>
<defs>
<clipPath id="clip0_203_1007">
<rect width="30" height="20" fill="white"/>
</clipPath>
</defs>
</svg>
