<?xml version="1.0" encoding="utf-8"?>
<!-- Generator: Adobe Illustrator 27.1.1, SVG Export Plug-In . SVG Version: 6.00 Build 0)  -->
<svg version="1.1" id="Layer_1" xmlns="http://www.w3.org/2000/svg" xmlns:xlink="http://www.w3.org/1999/xlink" x="0px" y="0px"
	 viewBox="0 0 160 70" style="enable-background:new 0 0 160 70;" xml:space="preserve">
<style type="text/css">
	.st0{fill:#9E8E42;}
	.st1{fill:#FFFFFF;}
</style>
<g>
	<path class="st1" d="M2.69,36.2c0-5.62,4.62-10.13,10.51-10.13c3.1,0,5.76,1.24,7.58,3.17l-2.93,2.52
		c-1.21-1.21-2.86-1.93-4.65-1.93c-3.65,0-6.48,2.86-6.48,6.38c0,3.48,2.72,6.51,6.48,6.51c2.93,0,5.41-1.48,5.58-3.69h-5.86v-3.31
		H23.2c-0.03,7.34-4.1,10.62-10,10.62C7.31,46.33,2.69,41.78,2.69,36.2z"/>
	<path class="st1" d="M38.43,46.06l-4.96-7.07h-1.52v7.07h-4.03V26.31h8.2c4.69,0,6.72,3.24,6.72,6.45c0,2.83-1.59,5.38-5.07,6.07
		l5.38,7.24H38.43z M31.95,29.86v5.89h3.41c2.41,0,3.41-1.38,3.41-2.9c0-1.52-1.07-3-3.07-3H31.95z"/>
	<path class="st1" d="M62.66,46.06l-1.69-4.72h-7.79l-1.69,4.72h-4.31l7.69-19.75h4.38l7.65,19.75H62.66z M54.43,37.85h5.27
		l-2.65-7.41L54.43,37.85z"/>
	<path class="st1" d="M82.93,26.31h4.03v19.75h-3.65l-7.65-12.3v12.3h-4.03V26.31h3.76l7.55,12.17V26.31z"/>
	<path class="st1" d="M107.16,46.06l-1.69-4.72h-7.79l-1.69,4.72h-4.31l7.69-19.75h4.38l7.65,19.75H107.16z M98.92,37.85h5.27
		l-2.65-7.41L98.92,37.85z"/>
	<path class="st1" d="M116.12,46.06V26.31h8.07c5.93,0,9.34,4.31,9.34,9.93c0,5.58-3.41,9.82-9.34,9.82H116.12z M120.15,42.51h4.03
		c3.52,0,5.31-2.93,5.31-6.27c0-3.38-1.79-6.38-5.31-6.38h-4.03V42.51z"/>
	<path class="st1" d="M137.32,36.16c0-5.58,4.58-10.1,10.48-10.1c5.82,0,10.48,4.52,10.48,10.1c0,5.62-4.65,10.17-10.48,10.17
		C141.9,46.33,137.32,41.78,137.32,36.16z M154.21,36.16c0-3.52-2.69-6.31-6.45-6.31c-3.76,0-6.41,2.79-6.41,6.31
		c0,3.55,2.65,6.38,6.41,6.38C151.52,42.54,154.21,39.71,154.21,36.16z"/>
</g>
</svg>
