<svg width="269" height="52" viewBox="0 0 269 52" fill="none" xmlns="http://www.w3.org/2000/svg">
<path d="M24.9362 1.3322H13.5917C8.33738 1.3322 3.08303 0.984156 0.771757 0.984156C0.279912 0.984156 0 1.26419 0 2.38436C0 3.50454 0.279912 3.78457 0.771757 3.78457C1.33158 3.78457 3.5029 3.64455 4.83448 3.64455C7.07777 3.64455 7.77755 4.48468 7.77755 7.14909V44.5789C7.77755 47.2433 7.07777 48.0834 4.83448 48.0834C3.5029 48.0834 1.33158 47.9434 0.771757 47.9434C0.279912 47.9434 0 48.2234 0 49.3436C0 50.4638 0.279912 50.7438 0.771757 50.7438C3.08303 50.7438 8.2694 50.4638 13.5237 50.3917C18.7781 50.3197 24.0324 50.7438 26.3437 50.7438C26.8316 50.7438 27.1155 50.4638 27.1155 49.3436C27.1155 48.2234 26.8356 47.9434 26.3437 47.9434C25.7839 47.9434 23.6126 48.0834 22.281 48.0834C20.0377 48.0834 19.3379 47.2433 19.3379 44.5789V5.8889C19.2659 4.20464 19.6178 3.78457 20.8094 3.78457C27.8872 3.78457 32.2978 6.79705 32.2978 13.8781C32.2978 22.0074 28.443 25.3719 22.141 25.3719C21.6492 25.3719 21.3693 25.6519 21.3693 26.6321C21.3693 27.6843 21.6492 27.8923 22.281 27.9643C23.8388 28.1517 25.4065 28.2453 26.9755 28.2443C35.033 28.2443 44.57 24.7398 44.57 14.7863C44.57 3.71256 33.7734 1.3282 24.9521 1.3282L24.9362 1.3322ZM15.6911 46.8232C15.6911 47.4553 15.4111 47.5953 14.3595 47.5953C13.3078 47.5953 13.0279 47.4553 13.0279 46.8232V4.5567C13.0279 3.9246 13.3078 3.78457 14.3595 3.78457C15.4111 3.78457 15.6911 3.9246 15.6911 4.5567V46.8232ZM31.3141 25.796C30.8929 25.8653 30.6823 25.7946 30.6823 25.5839C30.6823 25.4439 30.7503 25.3719 31.0302 25.2319C33.1459 24.356 34.9509 22.8662 36.2124 20.9545C37.4739 19.0428 38.1342 16.7968 38.108 14.5062C38.2234 12.4687 37.7328 10.4426 36.6979 8.68381C35.6631 6.92507 34.1306 5.51258 32.2938 4.62471C32.0139 4.48469 31.9419 4.34466 31.9419 4.20464C31.9419 3.92459 32.1525 3.85393 32.5737 3.99261C35.0106 4.54743 37.1828 5.92345 38.7262 7.89003C40.2696 9.85662 41.0905 12.2942 41.0511 14.7943C41.0438 17.4997 40.051 20.1097 38.2587 22.1356C36.4664 24.1615 33.9974 25.4642 31.3141 25.8" fill="white"/>
<path d="M103.407 3.64855C104.739 3.64855 106.91 3.78859 107.47 3.78859C107.962 3.78859 108.242 3.50854 108.242 2.38836C108.242 1.26819 107.962 0.988154 107.47 0.988154C105.159 0.988154 99.9725 1.3402 94.7182 1.3402C89.4638 1.3402 84.2095 0.988154 81.8982 0.988154C81.4064 0.988154 81.1264 1.26819 81.1264 2.38836C81.1264 3.50854 81.4064 3.78859 81.8982 3.78859C82.458 3.78859 84.6293 3.64855 85.9609 3.64855C88.2042 3.64855 88.904 4.48869 88.904 7.1531V18.7189C88.904 21.3833 88.2042 22.2234 85.9609 22.2234H70.1299C67.8866 22.2234 67.1868 21.3833 67.1868 18.7189V7.1531C67.1868 4.48869 67.8866 3.64855 70.1299 3.64855C71.4615 3.64855 73.6328 3.78859 74.1926 3.78859C74.6845 3.78859 74.9644 3.50854 74.9644 2.38836C74.9644 1.26819 74.6845 0.988154 74.1926 0.988154C71.8814 0.988154 66.695 1.3402 61.4407 1.3402C56.1863 1.3402 50.932 0.988154 48.6207 0.988154C48.1328 0.988154 47.8489 1.26819 47.8489 2.38836C47.8489 3.50854 48.1288 3.78859 48.6207 3.78859C49.1805 3.78859 51.3518 3.64855 52.6834 3.64855C54.9267 3.64855 55.6265 4.48869 55.6265 7.1531V44.5829C55.6265 47.2473 54.9267 48.0874 52.6834 48.0874C51.3518 48.0874 49.1805 47.9474 48.6207 47.9474C48.1328 47.9474 47.8489 48.2274 47.8489 49.3476C47.8489 50.4678 48.1288 50.7478 48.6207 50.7478C50.932 50.7478 56.1183 50.3957 61.3727 50.3957C66.627 50.3957 71.8814 50.7478 74.1926 50.7478C74.6845 50.7478 74.9644 50.4678 74.9644 49.3476C74.9644 48.2274 74.6845 47.9474 74.1926 47.9474C73.6328 47.9474 71.4615 48.0874 70.1299 48.0874C67.8866 48.0874 67.1868 47.2473 67.1868 44.5829V28.5324C67.1868 25.868 67.8866 25.0278 70.1299 25.0278H85.9609C88.2042 25.0278 88.904 25.868 88.904 28.5324V44.5829C88.904 47.2473 88.2042 48.0874 85.9609 48.0874C84.6293 48.0874 82.458 47.9474 81.8982 47.9474C81.4064 47.9474 81.1264 48.2274 81.1264 49.3476C81.1264 50.4678 81.4064 50.7478 81.8982 50.7478C84.2095 50.7478 89.3959 50.3957 94.6502 50.3957C99.9046 50.3957 105.159 50.7478 107.47 50.7478C107.962 50.7478 108.242 50.4678 108.242 49.3476C108.242 48.2274 107.962 47.9474 107.47 47.9474C106.91 47.9474 104.739 48.0874 103.407 48.0874C101.164 48.0874 100.464 47.2473 100.464 44.5829V7.1531C100.464 4.48869 101.164 3.64855 103.407 3.64855ZM63.544 46.8232C63.544 47.4553 63.2641 47.5953 62.2124 47.5953C61.1608 47.5953 60.8808 47.4553 60.8808 46.8232V4.56069C60.8808 3.9286 61.1608 3.78859 62.2124 3.78859C63.2641 3.78859 63.544 3.9286 63.544 4.56069V46.8232ZM96.8215 46.8232C96.8215 47.4553 96.5416 47.5953 95.4899 47.5953C94.4383 47.5953 94.1584 47.4553 94.1584 46.8232V4.56069C94.1584 3.9286 94.4383 3.78859 95.4899 3.78859C96.5416 3.78859 96.8215 3.9286 96.8215 4.56069V46.8232Z" fill="white"/>
<path d="M155.111 31.5408C154.623 31.5408 154.199 31.6809 153.912 32.593C151.04 42.7546 146.766 48.0834 138.92 48.0834C134.438 48.0834 132.406 46.1191 132.406 40.4422V25.0919C139.764 25.0919 142.003 26.4921 144.738 33.2931C144.808 33.5307 144.958 33.7371 145.162 33.8777C145.365 34.0183 145.611 34.0845 145.858 34.0652C146.015 34.0756 146.172 34.0472 146.316 33.9827C146.46 33.9182 146.585 33.8194 146.682 33.6951C146.779 33.5708 146.843 33.4246 146.871 33.2695C146.898 33.1143 146.886 32.9548 146.838 32.805C145.771 29.6915 144.927 26.5055 144.315 23.2716C143.731 19.9125 143.38 16.5173 143.263 13.11C143.263 12.3379 142.911 12.0579 142.211 12.0579C142.065 12.0362 141.916 12.0479 141.775 12.0921C141.634 12.1363 141.505 12.2118 141.397 12.313C141.289 12.4142 141.206 12.5385 141.153 12.6765C141.1 12.8145 141.079 12.9627 141.092 13.11C141.511 20.9592 138.36 22.0114 132.402 22.6435V5.88891C132.402 4.20465 132.754 3.78458 133.942 3.78458C145.29 3.78458 149.985 7.70918 152.576 15.4904C152.856 16.3305 153.136 16.5425 153.628 16.5425C153.8 16.5504 153.972 16.5161 154.128 16.4425C154.284 16.3689 154.42 16.2583 154.523 16.1204C154.627 15.9824 154.695 15.8212 154.722 15.6507C154.75 15.4803 154.735 15.3057 154.679 15.1423C153.267 10.662 152.419 6.02271 152.156 1.33221C152.088 0.280044 151.804 0 151.244 0C150.125 0 150.405 1.33221 146.846 1.33221H126.6C121.402 1.33221 116.159 0.980146 113.848 0.980146C113.356 0.980146 113.076 1.2602 113.076 2.38037C113.076 3.50054 113.356 3.78058 113.848 3.78058C114.408 3.78058 116.579 3.64056 117.911 3.64056C120.154 3.64056 120.854 4.48069 120.854 7.1451V44.5748C120.854 47.2393 120.154 48.0794 117.911 48.0794C116.579 48.0794 114.408 47.9394 113.848 47.9394C113.356 47.9394 113.076 48.2194 113.076 49.3396C113.076 50.4598 113.356 50.7398 113.848 50.7398C116.159 50.7398 121.274 50.3878 126.528 50.3878H148.317C148.814 50.3241 149.318 50.3872 149.784 50.5712C150.25 50.7551 150.661 51.054 150.98 51.4399C151.114 51.6103 151.284 51.7489 151.477 51.8458C151.671 51.9426 151.884 51.9953 152.1 52C152.66 52 152.94 51.5999 153.012 50.7398C153.351 44.7471 154.408 38.817 156.163 33.0771C156.248 32.9069 156.285 32.7172 156.272 32.5276C156.259 32.3379 156.196 32.1551 156.089 31.9982C155.982 31.8412 155.835 31.7157 155.663 31.6346C155.491 31.5535 155.3 31.5197 155.111 31.5368V31.5408ZM128.767 46.8152C128.767 47.4473 128.488 47.5873 127.436 47.5873C126.384 47.5873 126.104 47.4473 126.104 46.8152V4.5567C126.104 3.9246 126.384 3.78458 127.436 3.78458C128.488 3.78458 128.767 3.9246 128.767 4.5567V46.8152Z" fill="white"/>
<path d="M189.152 23.0635V22.9235C196.858 22.6435 204.844 19.631 204.844 11.7778C204.844 4.06863 198.609 1.12417 187.537 1.12417C183.538 1.12417 179.539 1.3362 175.541 1.3362C170.286 1.3362 165.032 0.984146 162.721 0.984146C162.229 0.984146 161.949 1.2642 161.949 2.38437C161.949 3.50454 162.229 3.78458 162.721 3.78458C163.281 3.78458 165.456 3.64456 166.783 3.64456C169.027 3.64456 169.727 4.48469 169.727 7.1491V44.5789C169.727 47.2433 169.027 48.0834 166.783 48.0834C165.452 48.0834 163.281 47.9434 162.721 47.9434C162.229 47.9434 161.949 48.2234 161.949 49.3436C161.949 50.4638 162.229 50.7438 162.721 50.7438C165.032 50.7438 170.218 50.4638 175.473 50.3917C179.116 50.3917 182.127 50.6718 187.173 50.6718C199.013 50.6718 207.911 47.0272 207.911 36.6696C207.911 26.9962 198.242 23.5636 189.116 23.0675L189.152 23.0635ZM194.315 4.00461C196.315 4.11628 198.199 4.98022 199.59 6.42326C200.98 7.8663 201.774 9.78179 201.812 11.7858C201.905 13.82 201.228 15.8143 199.916 17.3713C198.604 18.9283 196.754 19.9337 194.735 20.1871C194.383 20.2591 194.103 20.2591 194.103 19.9751C194.103 19.763 194.315 19.695 194.663 19.555C196.032 18.887 197.166 17.8194 197.917 16.4931C198.667 15.1668 198.998 13.6441 198.865 12.1259C198.991 10.5464 198.611 8.96784 197.78 7.61909C196.949 6.27034 195.71 5.22152 194.243 4.6247C193.891 4.48468 193.683 4.41267 193.683 4.20464C193.683 3.99661 193.895 3.92461 194.315 3.99262V4.00461ZM177.64 46.5392C177.64 47.1713 177.36 47.3113 176.308 47.3113C175.257 47.3113 174.977 47.1713 174.977 46.5392V4.84074C174.977 4.20864 175.257 4.06862 176.308 4.06862C177.36 4.06862 177.64 4.20864 177.64 4.84074V46.5392ZM187.797 48.0794C183.314 48.0794 181.283 45.679 181.283 38.758V5.88891C181.283 4.20465 181.635 3.78458 182.826 3.78458C189.552 3.78458 193.055 6.72903 193.055 12.986C193.191 14.1757 193.052 15.3807 192.648 16.5081C192.245 17.6355 191.588 18.655 190.728 19.4881C189.868 20.3212 188.829 20.9456 187.69 21.313C186.551 21.6804 185.342 21.7811 184.158 21.6073C183.386 21.6073 183.038 21.9594 183.038 23.1476C183.038 24.3357 183.386 24.6878 184.158 24.6878C192.775 24.6878 195.718 27.9123 195.718 36.4616C195.718 43.8227 192.707 48.0954 187.801 48.0954L187.797 48.0794ZM198.45 46.6232C197.919 46.9598 197.321 47.1756 196.698 47.2553C196.49 47.2553 196.346 47.1833 196.346 47.0432C196.346 46.9032 196.486 46.7632 196.978 46.4111C198.442 45.3331 199.622 43.9144 200.416 42.2777C201.21 40.6411 201.593 38.8357 201.533 37.0177C201.645 33.9212 200.538 30.9044 198.45 28.6164C197.47 27.4962 197.186 27.4962 197.186 27.2162C197.181 27.1873 197.183 27.1576 197.192 27.1296C197.201 27.1017 197.217 27.0762 197.237 27.0555C197.258 27.0347 197.283 27.0193 197.311 27.0103C197.339 27.0014 197.369 26.9993 197.398 27.0042C198.219 27.2624 198.998 27.6398 199.709 28.1243C201.236 28.9635 202.505 30.2026 203.382 31.7087C204.258 33.2148 204.708 34.9311 204.684 36.6736C204.659 38.7457 204.064 40.7709 202.965 42.5269C201.865 44.2828 200.303 45.7015 198.45 46.6272" fill="white"/>
<path d="M241.784 0.632094C227.56 0.632094 215.3 10.0936 215.3 25.936C215.3 41.5664 227.42 51.1679 242.764 51.1679C246.16 51.3272 249.554 50.7905 252.736 49.5908C255.918 48.391 258.822 46.5534 261.269 44.1907C263.716 41.8281 265.654 38.9902 266.966 35.8511C268.277 32.712 268.934 29.338 268.895 25.936C268.895 10.4456 257.615 0.632094 241.784 0.632094ZM230.156 44.9309C226.92 42.7978 224.278 39.8785 222.476 36.446C220.675 33.0135 219.773 29.1799 219.855 25.3039C219.699 19.6265 221.731 14.1064 225.529 9.88552C225.671 9.70921 225.868 9.58534 226.089 9.53346C226.297 9.53346 226.441 9.7455 226.229 10.0936C223.989 14.3975 222.857 19.192 222.934 24.0437C222.815 27.7729 223.434 31.4888 224.757 34.9774C226.079 38.466 228.079 41.6584 230.639 44.3708C230.701 44.4232 230.751 44.4874 230.788 44.5595C230.824 44.6316 230.846 44.7103 230.851 44.7909C230.851 45.0709 230.571 45.211 230.152 44.9309H230.156ZM244.583 47.6633C236.034 47.6633 227.069 38.6219 227.069 22.6395C227.069 10.4416 232.391 4.06463 239.681 4.06463C248.226 4.06463 257.195 13.106 257.195 29.0885C257.195 41.2863 251.873 47.6633 244.587 47.6633H244.583ZM260.07 41.2863C259.718 41.6384 259.578 41.7784 259.37 41.7784C259.315 41.7755 259.263 41.7523 259.224 41.7131C259.185 41.6739 259.161 41.6217 259.158 41.5664C259.158 41.4944 259.158 41.4264 259.298 41.2143C261.497 37.1081 262.538 32.4809 262.309 27.8283C262.293 23.7958 261.471 19.8072 259.892 16.0972C258.313 12.3872 256.007 9.03062 253.112 6.22495C252.832 5.94491 252.692 5.8049 252.692 5.59286C252.692 5.31282 252.972 5.24081 253.392 5.45284C257.075 7.38602 260.15 10.302 262.277 13.8774C264.403 17.4528 265.498 21.5478 265.44 25.708C265.763 31.404 263.824 36.9969 260.046 41.2703" fill="white"/>
</svg>
